SplineFontDB: 3.0
FontName: Topmarks-Bold
FullName: Topmarks Bold
FamilyName: Topmarks
Weight: Medium
Copyright: Copyright (c) 2012-13 by vernon adams. All rights reserved.
Version: 0.000;PS (version unavailable);hotconv 1.0.70;makeotf.lib2.5.58329 DEVELOPMENT
ItalicAngle: 0
UnderlinePosition: 0
UnderlineWidth: 0
Ascent: 1638
Descent: 410
sfntRevision: 0x00000000
LayerCount: 2
Layer: 0 0 "Back"  1
Layer: 1 0 "Fore"  0
XUID: [1021 848 1411038578 4237889]
FSType: 0
OS2Version: 3
OS2_WeightWidthSlopeOnly: 0
OS2_UseTypoMetrics: 1
CreationTime: 1364921857
ModificationTime: 1365262006
PfmFamily: 81
TTFWeight: 700
TTFWidth: 5
LineGap: 0
VLineGap: 0
OS2TypoAscent: 1960
OS2TypoAOffset: 0
OS2TypoDescent: -656
OS2TypoDOffset: 0
OS2TypoLinegap: 0
OS2WinAscent: 1960
OS2WinAOffset: 0
OS2WinDescent: 656
OS2WinDOffset: 0
HheadAscent: 1960
HheadAOffset: 0
HheadDescent: -656
HheadDOffset: 0
OS2Vendor: 'newt'
Lookup: 4 0 0 "fracDiagonalFractionslookup0"  {"fracDiagonalFractionslookup0 subtable"  } ['frac' ('latn' <'dflt' > 'grek' <'dflt' > 'DFLT' <'dflt' > ) ]
Lookup: 260 0 0 "markMarkPositioninglookup0"  {"markMarkPositioninglookup0 subtable"  } ['mark' ('DFLT' <'dflt' > 'grek' <'dflt' > 'latn' <'dflt' > ) ]
Lookup: 258 0 0 "pos_pair_kernlatn_0"  {"pos_pair_kernlatn_0 per glyph data 0" [307,30,0] "pos_pair_kernlatn_0 kerning class 1" [307,0,0] } ['kern' ('DFLT' <'dflt' > 'latn' <'dflt' > ) ]
Lookup: 260 0 0 "markMarkPositioninglookup0-0"  {"markMarkPositioninglookup0-0 subtable"  } []
MarkAttachClasses: 1
DEI: 91125
KernClass2: 16 21 "pos_pair_kernlatn_0 kerning class 1" 
 89 A Aacute Abreve Acircumflex Adieresis Agrave Amacron Aogonek Aring Atilde uni0200 uni0202
 1 D
 1 F
 14 G Gcommaaccent
 1 K
 1 L
 1 P
 44 R Racute Rcaron Rcommaaccent uni0210 uni0212
 9 T uni021A
 1 V
 1 W
 18 Y Yacute Ydieresis
 24 c cacute ccaron ccedilla
 60 o oacute ocircumflex odieresis ograve otilde uni020D uni020F
 37 r rcaron rcommaaccent uni0211 uni0213

StartChar: Eth
Encoding: 142 208 1
Width: 1504
Flags: W
HStem: 0 200<452 905.329> 645 197<37 816> 1256 200<452 889.893>
VStem: 202 250<200 1256> 1180 266<462.816 992.684>
LayerCount: 2
UndoRedoHistory
Layer: 1
Undoes
EndUndoes
Redoes
EndRedoes
EndUndoRedoHistory
Fore
SplineSet
452 200 m 1
 614 200 l 2
 1032 200 1180 372 1180 739 c 0
 1180 1092 1020 1256 574 1256 c 2
 452 1256 l 1
 452 200 l 1
202 0 m 1
 202 1456 l 1
 541 1456 l 2
 1135 1456 1446 1240 1446 742 c 0
 1446 225 1164 0 598 0 c 2
 202 0 l 1
37 645 m 1
 37 842 l 1
 816 842 l 1
 816 645 l 1
 37 645 l 1
EndSplineSet
EndChar

StartChar: eth
Encoding: 174 240 2
Width: 2022
Flags: W
HStem: -40 166<534.547 870.836> 875 165<521.938 877.065> 1191 161<749 968 1207 1377>
VStem: 165 207<299.681 714.177> 1064 199<836 1146.93>
LayerCount: 2
UndoRedoHistory
Layer: 1
Undoes
EndUndoes
Redoes
EndRedoes
EndUndoRedoHistory
Fore
SplineSet
708 -40 m 0
 461 -40 283 95 205 293 c 1
 177 359 165 433 165 510 c 0
 165 764 296 928 470 1001 c 0
 530 1027 595 1040 669 1040 c 0
 860 1040 988 970 1064 836 c 1
 1064 847 l 1
 1063 981 1052 1087 1027 1191 c 1
 749 1191 l 1
 749 1352 l 1
 968 1352 l 1
 904 1479 817 1565 701 1637 c 1
 784 1736 l 1
 953 1663 1067 1531 1146 1352 c 1
 1377 1352 l 1
 1377 1191 l 1
 1207 1191 l 1
 1242 1068 1263 933 1263 776 c 0
 1263 410 1160 129 937 12 c 1
 869 -22 794 -40 708 -40 c 0
700 126 m 0
 937 126 1049 327 1049 588 c 2
 1049 616 l 1
 1002 766 879 875 698 875 c 0
 487 875 372 736 372 504 c 0
 372 329 450 207 564 153 c 0
 605 134 649 126 700 126 c 0
EndSplineSet
EndChar

StartChar: Lslash
Encoding: 222 321 3
Width: 1982
Flags: W
HStem: 0 174<458 1279>
VStem: 256 202<174 710 997 1710>
LayerCount: 2
UndoRedoHistory
Layer: 1
Undoes
EndUndoes
Redoes
EndRedoes
EndUndoRedoHistory
Fore
SplineSet
256 0 m 1
 256 710 l 1
 37 574 l 1
 37 735 l 1
 256 871 l 1
 256 1710 l 1
 458 1710 l 1
 458 997 l 1
 793 1206 l 1
 793 1045 l 1
 458 836 l 1
 458 174 l 1
 1279 174 l 1
 1279 0 l 1
 256 0 l 1
EndSplineSet
EndChar

StartChar: lslash
Encoding: 223 322 4
Width: 895
Flags: W
HStem: 0 21G<207 401>
VStem: 207 194<0 809 1086 1752>
LayerCount: 2
UndoRedoHistory
Layer: 1
Undoes
EndUndoes
Redoes
EndRedoes
EndUndoRedoHistory
Fore
SplineSet
207 0 m 1
 207 809 l 1
 10 691 l 1
 10 852 l 1
 207 970 l 1
 207 1752 l 1
 401 1752 l 1
 401 1086 l 1
 602 1206 l 1
 602 1045 l 1
 401 925 l 1
 401 0 l 1
 207 0 l 1
EndSplineSet
EndChar

StartChar: Thorn
Encoding: 156 222 9
Width: 1367
Flags: W
HStem: 0 21G<192 442> 456 194<442 934.079> 1080 190<442 934.666> 1436 20G<192 442>
VStem: 192 250<0 456 650 1080 1270 1456> 1018 235<719.611 1004>
LayerCount: 2
UndoRedoHistory
Layer: 1
Undoes
EndUndoes
Redoes
EndRedoes
EndUndoRedoHistory
Fore
SplineSet
192 0 m 1
 192 1456 l 1
 442 1456 l 1
 442 1270 l 1
 632 1270 l 2
 990 1270 1253 1210 1253 855 c 0
 1253 528 1012 456 677 456 c 2
 442 456 l 1
 442 0 l 1
 192 0 l 1
442 650 m 1
 675 650 l 2
 896 650 1018 678 1018 852 c 0
 1018 1072 878 1080 636 1080 c 2
 442 1080 l 1
 442 650 l 1
EndSplineSet
EndChar

StartChar: thorn
Encoding: 188 254 10
Width: 2116
Flags: W
HStem: -278 155<658.951 984.772> 826 157<660.286 995.258> 1438 20G<289 485>
VStem: 289 193<-752 -92 82.4641 609.301 785 1458> 1161 206<91.8244 624.573>
LayerCount: 2
UndoRedoHistory
Layer: 1
Undoes
EndUndoes
Redoes
EndRedoes
EndUndoRedoHistory
Fore
SplineSet
289 -752 m 1
 289 1458 l 1
 485 1458 l 1
 485 785 l 1
 564 902 677 983 848 983 c 0
 1106 983 1268 825 1333 605 c 0
 1355 529 1367 451 1367 368 c 0
 1367 83 1248 -126 1066 -224 c 1
 1004 -259 932 -278 848 -278 c 0
 695 -278 573 -216 482 -92 c 1
 482 -752 l 1
 289 -752 l 1
822 -123 m 0
 1062 -123 1161 97 1161 361 c 0
 1161 624 1068 826 829 826 c 0
 576 826 482 609 482 329 c 0
 482 126 551 -22 676 -89 c 0
 718 -111 767 -123 822 -123 c 0
EndSplineSet
EndChar

StartChar: brokenbar
Encoding: 102 166 16
Width: 792
Flags: W
VStem: 274 240<-277 518 772 1526>
LayerCount: 2
UndoRedoHistory
Layer: 1
Undoes
EndUndoes
Redoes
EndRedoes
EndUndoRedoHistory
Fore
SplineSet
274 -277 m 1
 274 518 l 1
 514 518 l 1
 514 -277 l 1
 274 -277 l 1
274 772 m 1
 274 1526 l 1
 514 1526 l 1
 514 772 l 1
 274 772 l 1
EndSplineSet
EndChar

StartChar: minus
Encoding: 312 8722 17
Width: 1115
Flags: W
HStem: 640 197<168 947>
LayerCount: 2
UndoRedoHistory
Layer: 1
Undoes
EndUndoes
Redoes
EndRedoes
EndUndoRedoHistory
Fore
SplineSet
168 640 m 1
 168 837 l 1
 947 837 l 1
 947 640 l 1
 168 640 l 1
EndSplineSet
EndChar

StartChar: multiply
Encoding: 149 215 18
Width: 1254
Flags: W
LayerCount: 2
UndoRedoHistory
Layer: 1
Undoes
EndUndoes
Redoes
EndRedoes
EndUndoRedoHistory
Fore
SplineSet
300 271 m 1
 179 392 l 1
 517 741 l 1
 179 1090 l 1
 300 1211 l 1
 627 862 l 1
 953 1211 l 1
 1075 1089 l 1
 736 741 l 1
 1075 393 l 1
 953 271 l 1
 627 619 l 1
 300 271 l 1
EndSplineSet
EndChar

StartChar: exclam
Encoding: 2 33 20
Width: 782
Flags: W
HStem: -12 318<272.5 509.5> 1436 20G<228 542>
VStem: 226 330<35.5698 258.954> 319 129<498 644.105>
LayerCount: 2
UndoRedoHistory
Layer: 1
Undoes
EndUndoes
Redoes
EndRedoes
EndUndoRedoHistory
Fore
SplineSet
391 -12 m 0xe0
 295 -12 226 54 226 149 c 0
 226 241 295 306 391 306 c 0
 487 306 556 241 556 146 c 0
 556 52 487 -12 391 -12 c 0xe0
319 498 m 1xd0
 228 1456 l 1
 542 1456 l 1
 448 498 l 1
 319 498 l 1xd0
EndSplineSet
EndChar

StartChar: quotedbl
Encoding: 3 34 21
Width: 815
Flags: W
HStem: 884 572<170 319 508 657>
VStem: 170 149<884 1079.24> 508 149<884 1079.24>
LayerCount: 2
UndoRedoHistory
Layer: 1
Undoes
EndUndoes
Redoes
EndRedoes
EndUndoRedoHistory
Fore
SplineSet
508 884 m 1
 466 1456 l 1
 687 1456 l 1
 657 884 l 1
 508 884 l 1
170 884 m 1
 128 1456 l 1
 349 1456 l 1
 319 884 l 1
 170 884 l 1
EndSplineSet
EndChar

StartChar: numbersign
Encoding: 4 35 22
Width: 1378
Flags: W
HStem: 0 21G<294 457.519 733 889.565> 432 147<99 377 553 806 986 1253> 903 145<178 456 635 887 1065 1327> 1436 20G<548.373 707 979.52 1143>
LayerCount: 2
UndoRedoHistory
Layer: 1
Undoes
EndUndoes
Redoes
EndRedoes
EndUndoRedoHistory
Fore
SplineSet
294 0 m 1
 377 432 l 1
 86 432 l 1
 99 579 l 1
 402 579 l 1
 456 903 l 1
 162 903 l 1
 178 1048 l 1
 478 1048 l 1
 552 1456 l 1
 707 1456 l 1
 635 1048 l 1
 912 1048 l 1
 983 1456 l 1
 1143 1456 l 1
 1065 1048 l 1
 1344 1048 l 1
 1327 903 l 1
 1041 903 l 1
 986 579 l 1
 1270 579 l 1
 1253 432 l 1
 963 432 l 1
 886 0 l 1
 733 0 l 1
 806 432 l 1
 530 432 l 1
 454 0 l 1
 294 0 l 1
553 579 m 1
 833 579 l 1
 887 903 l 1
 611 903 l 1
 553 579 l 1
EndSplineSet
EndChar

StartChar: dollar
Encoding: 5 36 23
Width: 1255
Flags: W
HStem: -18.3759 208.036<423.941 608.211 739 835.935> 1270.95 209.816<486.85 609.612 739 894.96>
VStem: 167 258<986.233 1215.94> 913 236<268.293 515.071>
LayerCount: 2
UndoRedoHistory
Layer: 1
Undoes
EndUndoes
Redoes
EndRedoes
EndUndoRedoHistory
Fore
SplineSet
608 -213 m 1
 739 -213 l 1
 739 -19.9920925999 l 1
 1015.93602285 0.756173326828 1144.30073254 179.653257211 1149 393 c 0
 1154.75633032 633.806484969 1052.82280976 740.230762867 739 853.560207715 c 1
 739 1269.35201112 l 1
 829.101778377 1256.85837637 925.792752747 1219.81655211 1027 1166 c 1
 1097 1360 l 1
 989.041211521 1426.24743838 861.684012787 1465.73844883 739 1477.92594961 c 1
 739 1628 l 1
 610 1628 l 1
 609.840052583 1480.76840259 l 1
 291.509198589 1464.11304613 167 1280.87126453 167 1074 c 0
 167 901 244 778 565 666 c 0
 580.30614457 661.039675371 594.942770216 656.150766094 608.938975499 651.326946395 c 1
 608.437436283 189.660098779 l 1
 502.341498913 201.122625747 378.639086672 240.462326739 234 321 c 1
 175 123 l 1
 293.533867418 47.956976023 458.608688949 -4.54277330578 608.211433069 -18.3758597903 c 1
 608 -213 l 1
609.211603932 902.281419252 m 1
 444.425816913 971.482032051 425 1020.56234592 425 1107 c 0
 425 1192.16554221 468.939915618 1256.51744018 609.612115382 1270.95220869 c 1
 609.211603932 902.281419252 l 1
739 600.350190074 m 1
 898.445903624 527.32371584 913 465.651747473 913 387 c 0
 913 296.174410446 856.467857399 213.424841264 739 191.594158805 c 1
 739 600.350190074 l 1
EndSplineSet
EndChar

StartChar: percent
Encoding: 6 37 24
Width: 2342
Flags: W
HStem: -22 156<1700.07 1960.21> 0 21G<591 815.102> 581 156<394.069 654.213> 717 155<1698.9 1957.8> 1320 155<392.903 651.801>
VStem: 102 196<836.046 1215.93> 748 186<840.844 1220.69> 1408 196<233.046 612.933> 2054 186<237.844 617.688>
LayerCount: 2
UndoRedoHistory
Layer: 1
Undoes
EndUndoes
Redoes
EndRedoes
EndUndoRedoHistory
Fore
SplineSet
516 581 m 0x2f80
 238 581 102 786 102 1025 c 0
 102 1306 279 1475 522 1475 c 0
 789 1475 934 1295 934 1030 c 0
 934 750 758 581 516 581 c 0x2f80
524 737 m 0
 679 737 748 872 748 1031 c 0
 748 1203 670 1320 525 1320 c 0
 367 1320 298 1187 298 1027 c 0
 298 866 366 737 524 737 c 0
1830 134 m 0x9f80
 1985 134 2054 269 2054 428 c 0
 2054 600 1976 717 1831 717 c 0
 1673 717 1604 584 1604 424 c 0
 1604 263 1672 134 1830 134 c 0x9f80
1822 -22 m 0
 1544 -22 1408 183 1408 422 c 0
 1408 703 1585 872 1828 872 c 0
 2095 872 2240 692 2240 427 c 0
 2240 147 2064 -22 1822 -22 c 0
591 0 m 1x4f80
 1563 1470 l 1
 1765 1470 l 1
 802 0 l 1
 591 0 l 1x4f80
EndSplineSet
EndChar

StartChar: ampersand
Encoding: 7 38 25
Width: 1590
Flags: W
HStem: -36 148<1426.74 1479.36> -21 199<484.685 883.038> 1315 168<561.91 801.093>
VStem: 146 233<268.507 554.927> 323 202<1025.6 1275.63> 841 200<1054.46 1274.7> 1243 192<638.855 871>
LayerCount: 2
UndoRedoHistory
Layer: 1
Undoes
EndUndoes
Redoes
EndRedoes
EndUndoRedoHistory
Fore
SplineSet
672 -21 m 0x6e
 373 -21 146 126 146 397 c 0x76
 146 653 311 741 477 837 c 1
 393 928 323 1010 323 1162 c 0
 323 1361 487 1483 672 1483 c 0
 873 1483 1041 1376 1041 1191 c 0
 1041 989 901 867 767 792 c 1
 1101 436 l 1
 1194 563 1243 746 1243 919 c 1
 1435 871 l 1
 1426 632 1348 431 1237 289 c 1
 1310 214 1381 153 1576 112 c 1
 1469 -36 l 1xae
 1316 -14 1192 72 1109 159 c 1
 998 42 888 -21 672 -21 c 0x6e
688 178 m 0
 817 178 889 209 970 293 c 1
 597 684 l 1
 480 618 379 571 379 408 c 0
 379 225 535 178 688 178 c 0
648 930 m 1
 737 981 841 1067 841 1174 c 0
 841 1268 769 1315 682 1315 c 0
 595 1315 525 1269 525 1174 c 0x2e
 525 1063 585 996 648 930 c 1
EndSplineSet
EndChar

StartChar: quotesingle
Encoding: 8 39 26
Width: 477
Flags: W
HStem: 908 572<170 319>
VStem: 170 149<908 1103.24>
LayerCount: 2
UndoRedoHistory
Layer: 1
Undoes
EndUndoes
Redoes
EndRedoes
EndUndoRedoHistory
Fore
SplineSet
170 908 m 1
 128 1480 l 1
 349 1480 l 1
 319 908 l 1
 170 908 l 1
EndSplineSet
EndChar

StartChar: parenleft
Encoding: 9 40 27
Width: 821
Flags: W
VStem: 184 272<348.466 994.356>
LayerCount: 2
UndoRedoHistory
Layer: 1
Undoes
EndUndoes
Redoes
EndRedoes
EndUndoRedoHistory
Fore
SplineSet
714 1564 m 1
 540 1192 456 985 456 678 c 0
 456 361 548 145 725 -244 c 1
 498 -244 l 1
 291 143 184 359 184 675 c 0
 184 983 284 1192 487 1564 c 1
 714 1564 l 1
EndSplineSet
EndChar

StartChar: parenright
Encoding: 10 41 28
Width: 821
Flags: W
VStem: 389 272<325.644 971.534>
LayerCount: 2
UndoRedoHistory
Layer: 1
Undoes
EndUndoes
Redoes
EndRedoes
EndUndoRedoHistory
Fore
SplineSet
131 -244 m 1
 305 128 389 335 389 642 c 0
 389 959 297 1175 120 1564 c 1
 347 1564 l 1
 554 1177 661 961 661 645 c 0
 661 337 561 128 358 -244 c 1
 131 -244 l 1
EndSplineSet
EndChar

StartChar: asterisk
Encoding: 11 42 29
Width: 1091
Flags: W
HStem: 1436 20G<465 616>
VStem: 465 151<1285.88 1456>
LayerCount: 2
UndoRedoHistory
Layer: 1
Undoes
EndUndoes
Redoes
EndRedoes
EndUndoRedoHistory
Fore
SplineSet
716 618 m 1
 547 930 l 1
 384 627 l 1
 238 715 l 1
 456 995 l 1
 135 1104 l 1
 199 1250 l 1
 495 1100 l 1
 465 1456 l 1
 616 1456 l 1
 603 1106 l 1
 887 1251 l 1
 963 1105 l 1
 634 999 l 1
 864 704 l 1
 716 618 l 1
EndSplineSet
EndChar

StartChar: plus
Encoding: 12 43 30
Width: 1354
Flags: W
HStem: 611 184<152 585 781 1202>
VStem: 587 194<135 611 795 1272>
LayerCount: 2
UndoRedoHistory
Layer: 1
Undoes
EndUndoes
Redoes
EndRedoes
EndUndoRedoHistory
Fore
SplineSet
585 135 m 1
 585 611 l 1
 152 611 l 1
 152 795 l 1
 587 795 l 1
 587 1272 l 1
 781 1272 l 1
 781 795 l 1
 1202 795 l 1
 1202 611 l 1
 779 611 l 1
 779 135 l 1
 585 135 l 1
EndSplineSet
EndChar

StartChar: comma
Encoding: 13 44 31
Width: 532
Flags: W
HStem: -297 552<184 248>
VStem: 94 345
AnchorPoint: "bottom" 268 346 mark 0
AnchorPoint: "bottom" 268 346 mark 0
LayerCount: 2
UndoRedoHistory
Layer: 1
Undoes
EndUndoes
Redoes
EndRedoes
EndUndoRedoHistory
Fore
SplineSet
94 -297 m 1
 184 255 l 1
 439 255 l 1
 248 -297 l 1
 94 -297 l 1
EndSplineSet
EndChar

StartChar: hyphen
Encoding: 14 45 32
Width: 1115
Flags: W
HStem: 640 197<168 947>
LayerCount: 2
UndoRedoHistory
Layer: 1
Undoes
EndUndoes
Redoes
EndRedoes
EndUndoRedoHistory
Fore
SplineSet
168 640 m 1
 168 837 l 1
 947 837 l 1
 947 640 l 1
 168 640 l 1
EndSplineSet
EndChar

StartChar: period
Encoding: 15 46 33
Width: 658
Flags: W
HStem: -12 318<210.5 447.5>
VStem: 164 330<35.5698 258.954>
LayerCount: 2
UndoRedoHistory
Layer: 1
Undoes
EndUndoes
Redoes
EndRedoes
EndUndoRedoHistory
Fore
SplineSet
329 -12 m 0
 233 -12 164 54 164 149 c 0
 164 241 233 306 329 306 c 0
 425 306 494 241 494 146 c 0
 494 52 425 -12 329 -12 c 0
EndSplineSet
EndChar

StartChar: slash
Encoding: 16 47 34
Width: 979
Flags: W
HStem: 0 21G<96 303.986> 1450 20G<682.905 883>
LayerCount: 2
UndoRedoHistory
Layer: 1
Undoes
EndUndoes
Redoes
EndRedoes
EndUndoRedoHistory
Fore
SplineSet
96 0 m 1
 691 1470 l 1
 883 1470 l 1
 296 0 l 1
 96 0 l 1
EndSplineSet
EndChar

StartChar: zero
Encoding: 17 48 35
Width: 1254
Flags: W
HStem: -24 208<499.501 751.509> 1272 208<488.964 754.95>
VStem: 93 238<408.103 1052.48> 923 238<421.949 1047.18>
LayerCount: 2
UndoRedoHistory
Layer: 1
Undoes
EndUndoes
Redoes
EndRedoes
EndUndoRedoHistory
Fore
SplineSet
625 184 m 0
 820 184 923 413 923 731 c 0
 923 1055 820 1272 625 1272 c 0
 427 1272 331 1055 331 731 c 0
 331 413 427 184 625 184 c 0
626 -24 m 0
 279 -24 93 290 93 728 c 0
 93 1172 279 1480 626 1480 c 0
 975 1480 1161 1172 1161 728 c 0
 1161 290 975 -24 626 -24 c 0
EndSplineSet
EndChar

StartChar: one
Encoding: 18 49 36
Width: 824
Flags: W
HStem: 0 21G<300 550> 1436 20G<300 550>
VStem: 300 250<0 1456>
LayerCount: 2
UndoRedoHistory
Layer: 1
Undoes
EndUndoes
Redoes
EndRedoes
EndUndoRedoHistory
Fore
SplineSet
300 0 m 1
 300 1456 l 1
 550 1456 l 1
 550 0 l 1
 300 0 l 1
EndSplineSet
EndChar

StartChar: two
Encoding: 19 50 37
Width: 1254
Flags: W
HStem: 0 200<518 1063> 1272 208<441.692 735.7>
VStem: 827 249<868.122 1183.4>
LayerCount: 2
UndoRedoHistory
Layer: 1
Undoes
EndUndoes
Redoes
EndRedoes
EndUndoRedoHistory
Fore
SplineSet
616 1480 m 0
 847 1480 1076 1336 1076 1027 c 0
 1076 863 965 709 819 543 c 2
 518 200 l 1
 1063 200 l 1
 1063 0 l 1
 211 0 l 1
 211 192 l 1
 656 685 l 2
 773 815 827 940 827 1041 c 0
 827 1178 732 1272 595 1272 c 0
 493 1272 396 1215 306 1112 c 1
 150 1246 l 1
 264 1404 451 1480 616 1480 c 0
EndSplineSet
EndChar

StartChar: three
Encoding: 20 51 38
Width: 1254
Flags: W
HStem: -24 208<390.277 769.661> 652 196<435 732.815> 1272 208<383.305 743.312>
VStem: 823 237<927.517 1195.1> 867 236<276.209 561.094>
LayerCount: 2
UndoRedoHistory
Layer: 1
Undoes
EndUndoes
Redoes
EndRedoes
EndUndoRedoHistory
Fore
SplineSet
627 -24 m 0xe8
 446 -24 320 17 184 112 c 1
 276 288 l 1
 396 210 508 184 623 184 c 0
 767 184 867 279 867 410 c 0xe8
 867 619 714 652 540 652 c 2
 435 652 l 1
 435 848 l 1
 526 848 l 2
 645 848 823 872 823 1060 c 0
 823 1207 712 1272 597 1272 c 0
 498 1272 367 1242 283 1160 c 1
 171 1317 l 1
 300 1437 447 1480 602 1480 c 0
 836 1480 1060 1358 1060 1090 c 0xf0
 1060 894 927 795 834 768 c 1
 931 749 1103 658 1103 407 c 0
 1103 132 884 -24 627 -24 c 0xe8
EndSplineSet
EndChar

StartChar: four
Encoding: 21 52 39
Width: 1254
Flags: W
HStem: 0 21G<754 964> 327 191<415 754 964 1161> 1436 20G<515.248 746>
VStem: 754 210<0 327 518 868>
LayerCount: 2
UndoRedoHistory
Layer: 1
Undoes
EndUndoes
Redoes
EndRedoes
EndUndoRedoHistory
Fore
SplineSet
964 868 m 5
 964 518 l 5
 1161 518 l 5
 1161 327 l 5
 964 327 l 5
 964 0 l 5
 754 0 l 5
 754 327 l 5
 154 327 l 1
 154 504 l 1
 523 1456 l 5
 746 1456 l 5
 415 518 l 1
 754 518 l 5
 754 868 l 5
 964 868 l 5
EndSplineSet
EndChar

StartChar: five
Encoding: 22 53 40
Width: 1254
Flags: W
HStem: -24 208<431.25 762.283> 733 196<532.411 777.508> 1257 199<499 1009>
VStem: 277 208<851 1257> 876 242<306.965 626.047>
LayerCount: 2
UndoRedoHistory
Layer: 1
Undoes
EndUndoes
Redoes
EndRedoes
EndUndoRedoHistory
Fore
SplineSet
634 -24 m 0
 461 -24 335 29 209 133 c 1
 299 322 l 1
 390 240 483 184 619 184 c 0
 776 184 876 313 876 459 c 0
 876 639 770 731 657 733 c 1
 584 733 519 717 452 644 c 1
 277 644 l 1
 277 1456 l 1
 1009 1456 l 1
 1009 1257 l 1
 499 1257 l 1
 485 851 l 1
 527 885 589 929 712 929 c 0
 901 929 1118 806 1118 466 c 0
 1118 138 884 -24 634 -24 c 0
EndSplineSet
EndChar

StartChar: six
Encoding: 23 54 41
Width: 1254
Flags: W
HStem: -24 204<515.206 797.197> 736 203<522.597 809.959>
VStem: 154 247<293.173 613.753> 913 233<296.639 625.872>
LayerCount: 2
UndoRedoHistory
Layer: 1
Undoes
EndUndoes
Redoes
EndRedoes
EndUndoRedoHistory
Fore
SplineSet
665 -24 m 0
 419 -24 154 134 154 537 c 0
 154 910 319 1363 880 1530 c 1
 956 1328 l 1
 675 1242 499 1098 431 832 c 1
 509 905 609 940 709 939 c 0
 927 937 1146 769 1146 468 c 0
 1146 140 895 -24 665 -24 c 0
658 180 m 0
 785 180 913 272 913 453 c 0
 913 649 794 736 665 736 c 0
 538 736 401 653 401 455 c 0
 401 273 530 180 658 180 c 0
EndSplineSet
EndChar

StartChar: seven
Encoding: 24 55 42
Width: 1254
Flags: W
HStem: 0 21G<344 630.247> 1257 199<177 795>
LayerCount: 2
UndoRedoHistory
Layer: 1
Undoes
EndUndoes
Redoes
EndRedoes
EndUndoRedoHistory
Fore
SplineSet
344 0 m 1
 795 1257 l 1
 177 1257 l 1
 177 1456 l 1
 1085 1456 l 1
 1085 1275 l 1
 623 0 l 1
 344 0 l 1
EndSplineSet
EndChar

StartChar: eight
Encoding: 25 56 43
Width: 1254
Flags: W
HStem: -24 192<490.651 810.283> 1292 188<496.788 792.596>
VStem: 176 241<238.737 489.198> 206 231<977.715 1232.87> 853 224<986.553 1234.39> 879 229<234.458 495.699>
LayerCount: 2
UndoRedoHistory
Layer: 1
Undoes
EndUndoes
Redoes
EndRedoes
EndUndoRedoHistory
Fore
SplineSet
1108 353 m 0xd4
 1108 156 983 -24 642 -24 c 0
 321 -24 176 135 176 360 c 0
 176 539 259 653 555 805 c 0
 810 936 853 1013 853 1122 c 0xe8
 853 1239 759 1292 646 1292 c 0
 524 1292 437 1231 437 1122 c 0
 437 961 544 906 750 802 c 0
 988 682 1108 533 1108 353 c 0xd4
206 1107 m 0xd4
 206 1352 390 1480 642 1480 c 0
 932 1480 1077 1305 1077 1107 c 0
 1077 952 940 817 710 694 c 0
 520 593 417 471 417 359 c 0xe8
 417 251 494 168 644 168 c 0
 811 168 879 251 879 356 c 0
 879 472 834 547 556 690 c 0
 464 737 206 825 206 1107 c 0xd4
EndSplineSet
EndChar

StartChar: nine
Encoding: 26 57 44
Width: 1254
Flags: W
HStem: 0 21G<828 1047> 1056 20G<1025.1 1047>
VStem: 160 237<817.749 1159.2> 828 219<0 0 1040.18 1257.64>
LayerCount: 2
UndoRedoHistory
Layer: 1
Undoes
EndUndoes
Redoes
EndRedoes
EndUndoRedoHistory
Fore
SplineSet
648 748 m 0
 772 778 829 894 829 1073 c 2
 829 1235 l 1
 810 1242 728 1298 637 1291 c 0
 483 1279 397 1138 397 982 c 0
 397 812 494 711 648 748 c 0
1047 1079 m 2
 1047 907 906 588 631 552 c 0
 374 518 160 695 160 973 c 0
 160 1276 379 1471 621 1480 c 0
 831 1488 983 1387 1047 1349 c 1
 1047 1079 l 2
1047 0 m 1
 828 0 l 1
 828 876 l 1
 1047 1076 l 1
 1047 0 l 1
EndSplineSet
EndChar

StartChar: colon
Encoding: 27 58 45
Width: 611
Flags: W
HStem: 0 247<178 433> 779 247<178 433>
VStem: 178 255<0 247 779 1026>
LayerCount: 2
UndoRedoHistory
Layer: 1
Undoes
EndUndoes
Redoes
EndRedoes
EndUndoRedoHistory
Fore
SplineSet
178 0 m 1
 178 247 l 1
 433 247 l 1
 433 0 l 1
 178 0 l 1
178 779 m 1
 178 1026 l 1
 433 1026 l 1
 433 779 l 1
 178 779 l 1
EndSplineSet
EndChar

StartChar: semicolon
Encoding: 28 59 46
Width: 679
Flags: W
HStem: 779 247<246 501>
VStem: 246 255<213.568 255 779 1026>
LayerCount: 2
UndoRedoHistory
Layer: 1
Undoes
EndUndoes
Redoes
EndRedoes
EndUndoRedoHistory
Fore
SplineSet
246 779 m 1
 246 1026 l 1
 501 1026 l 1
 501 779 l 1
 246 779 l 1
156 -297 m 1
 246 255 l 1
 501 255 l 1
 310 -297 l 1
 156 -297 l 1
EndSplineSet
EndChar

StartChar: less
Encoding: 29 60 47
Width: 1217
Flags: W
LayerCount: 2
UndoRedoHistory
Layer: 1
Undoes
EndUndoes
Redoes
EndRedoes
EndUndoRedoHistory
Fore
SplineSet
1045 84 m 1
 96 518 l 1
 96 645 l 1
 1049 1098 l 1
 1049 897 l 1
 414 585 l 1
 1045 286 l 1
 1045 84 l 1
EndSplineSet
EndChar

StartChar: equal
Encoding: 30 61 48
Width: 1162
Flags: W
HStem: 450 170<169 994> 853 173<168 994>
LayerCount: 2
UndoRedoHistory
Layer: 1
Undoes
EndUndoes
Redoes
EndRedoes
EndUndoRedoHistory
Fore
SplineSet
168 853 m 1
 168 1026 l 1
 994 1026 l 1
 994 853 l 1
 168 853 l 1
169 450 m 1
 169 620 l 1
 994 620 l 1
 994 450 l 1
 169 450 l 1
EndSplineSet
EndChar

StartChar: greater
Encoding: 31 62 49
Width: 1217
Flags: W
LayerCount: 2
UndoRedoHistory
Layer: 1
Undoes
EndUndoes
Redoes
EndRedoes
EndUndoRedoHistory
Fore
SplineSet
172 1092 m 1
 1121 658 l 1
 1121 531 l 1
 168 78 l 1
 168 279 l 1
 803 591 l 1
 172 890 l 1
 172 1092 l 1
EndSplineSet
EndChar

StartChar: question
Encoding: 32 63 50
Width: 965
Flags: W
HStem: -12 318<269.5 506.5> 1252 228<209.052 552.227>
VStem: 223 330<35.5698 258.954> 592 277<1005.58 1211.61>
LayerCount: 2
UndoRedoHistory
Layer: 1
Undoes
EndUndoes
Redoes
EndRedoes
EndUndoRedoHistory
Fore
SplineSet
388 -12 m 0
 292 -12 223 54 223 149 c 0
 223 241 292 306 388 306 c 0
 484 306 553 241 553 146 c 0
 553 52 484 -12 388 -12 c 0
328 423 m 1
 328 887 592 963 592 1109 c 0
 592 1212 512 1252 418 1252 c 0
 352 1252 261 1233 187 1205 c 1
 156 1416 l 1
 259 1459 372 1480 472 1480 c 0
 685 1480 869 1377 869 1137 c 0
 869 781 499 776 442 423 c 1
 328 423 l 1
EndSplineSet
EndChar

StartChar: at
Encoding: 33 64 51
Width: 1811
Flags: W
HStem: -64 153<713.175 1249.7> 298 133<1220.12 1398.89> 299 166<734.178 933.352> 1369 145<708.854 1201.19>
VStem: 111 191<480.894 969.417> 521 168<509.529 849.713> 1074 134<639.298 764.335> 1539 161<598.481 1048.26>
LayerCount: 2
UndoRedoHistory
Layer: 1
Undoes
EndUndoes
Redoes
EndRedoes
EndUndoRedoHistory
Fore
SplineSet
953 -64 m 0xdf
 516 -64 111 214 111 721 c 0
 111 1244 534 1514 966 1514 c 0
 1338 1514 1700 1290 1700 832 c 0
 1700 511 1521 298 1275 298 c 0xdf
 1167 298 1067 362 1076 506 c 1
 1006 365 888 299 793 299 c 0xbf
 636 299 521 432 521 668 c 0
 521 946 722 1162 919 1177 c 0
 1060 1188 1122 1123 1150 1041 c 1
 1189 1146 l 1
 1330 1146 l 1
 1257 792 1208 545 1208 528 c 0
 1208 468 1244 431 1290 431 c 0
 1390 431 1539 544 1539 837 c 0
 1539 1172 1274 1369 964 1369 c 0
 608 1369 302 1140 302 726 c 0
 302 311 598 89 981 89 c 0
 1119 89 1278 129 1401 200 c 1
 1482 71 l 1
 1324 -24 1127 -64 953 -64 c 0xdf
826 465 m 0xbf
 936 465 1074 601 1074 868 c 0
 1074 975 1021 1023 956 1023 c 0
 842 1023 689 883 689 651 c 0
 689 526 752 465 826 465 c 0xbf
EndSplineSet
EndChar

StartChar: A
Encoding: 34 65 52
Width: 1407
Flags: W
HStem: 0 21G<50 330.746 1065.49 1357> 335 198<504 898> 1436 20G<580.61 835.266>
AnchorPoint: "ogonek" 1260 0 basechar 0
AnchorPoint: "bottom" 736 0 basechar 0
AnchorPoint: "top" 702 1536 basechar 0
AnchorPoint: "ogonek" 1260 0 basechar 0
AnchorPoint: "bottom" 736 0 basechar 0
AnchorPoint: "top" 702 1536 basechar 0
LayerCount: 2
UndoRedoHistory
Layer: 1
Undoes
EndUndoes
Redoes
EndRedoes
EndUndoRedoHistory
Fore
SplineSet
50 0 m 1
 588 1456 l 1
 828 1456 l 1
 1357 0 l 1
 1072 0 l 1
 963 335 l 1
 437 335 l 1
 324 0 l 1
 50 0 l 1
504 533 m 1
 898 533 l 1
 827 758 l 1
 702 1129 l 1
 577 758 l 1
 504 533 l 1
EndSplineSet
EndChar

StartChar: B
Encoding: 35 66 53
Width: 1380
Flags: W
HStem: 0 201<444 927.132> 664 184<444 880.566> 1256 200<444 891.219>
VStem: 194 250<201 664 848 1256> 969 242<927.235 1185.32> 1026 246<288.47 575.138>
AnchorPoint: "bottom" 676 0 basechar 0
AnchorPoint: "top" 700 1536 basechar 0
AnchorPoint: "bottom" 678 0 basechar 0
AnchorPoint: "top" 702 1536 basechar 0
LayerCount: 2
UndoRedoHistory
Layer: 1
Undoes
EndUndoes
Redoes
EndRedoes
EndUndoRedoHistory
Fore
SplineSet
194 0 m 1xf4
 194 1456 l 1
 641 1456 l 2
 1023 1456 1211 1353 1211 1108 c 0xf8
 1211 928 1140 830 974 782 c 1
 1183 747 1272 637 1272 424 c 0
 1272 131 1086 0 705 0 c 2
 194 0 l 1xf4
444 201 m 1
 708 201 l 2
 931 201 1026 272 1026 437 c 0xf4
 1026 594 926 664 693 664 c 2
 444 664 l 1
 444 201 l 1
444 848 m 1
 664 848 l 2
 879 848 969 915 969 1070 c 0xf8
 969 1203 875 1256 651 1256 c 2
 444 1256 l 1
 444 848 l 1
EndSplineSet
EndChar

StartChar: C
Encoding: 36 67 54
Width: 1370
Flags: W
HStem: -24 208<651.901 1068.53> 1272 208<646.248 1028.99>
VStem: 116 266<478.465 986.093>
AnchorPoint: "bottom" 826 0 basechar 0
AnchorPoint: "top" 790 1536 basechar 0
AnchorPoint: "bottom" 826 0 basechar 0
AnchorPoint: "top" 790 1536 basechar 0
LayerCount: 2
UndoRedoHistory
Layer: 1
Undoes
EndUndoes
Redoes
EndRedoes
EndUndoRedoHistory
Fore
SplineSet
823 -24 m 0
 405 -24 116 287 116 733 c 0
 116 1185 417 1480 836 1480 c 0
 985 1480 1152 1422 1275 1327 c 1
 1188 1136 l 1
 1113 1197 970 1272 837 1272 c 0
 547 1272 382 1045 382 732 c 0
 382 418 546 184 851 184 c 0
 972 184 1114 232 1213 311 c 1
 1291 125 l 1
 1182 36 981 -24 823 -24 c 0
EndSplineSet
EndChar

StartChar: D
Encoding: 37 68 55
Width: 1554
Flags: W
HStem: 0 200<444 897.329> 1256 200<444 881.893>
VStem: 194 250<200 1256> 1172 266<462.816 992.684>
AnchorPoint: "bottom" 676 0 basechar 0
AnchorPoint: "top" 700 1536 basechar 0
AnchorPoint: "bottom" 678 0 basechar 0
AnchorPoint: "top" 702 1536 basechar 0
LayerCount: 2
UndoRedoHistory
Layer: 1
Undoes
EndUndoes
Redoes
EndRedoes
EndUndoRedoHistory
Fore
SplineSet
444 200 m 1
 606 200 l 2
 1024 200 1172 372 1172 739 c 0
 1172 1092 1012 1256 566 1256 c 2
 444 1256 l 1
 444 200 l 1
194 0 m 1
 194 1456 l 1
 533 1456 l 2
 1127 1456 1438 1240 1438 742 c 0
 1438 225 1156 0 590 0 c 2
 194 0 l 1
EndSplineSet
EndChar

StartChar: E
Encoding: 38 69 56
Width: 1208
Flags: W
HStem: 0 200<444 1072> 650 193<444 1010> 1256 200<444 1052>
VStem: 194 250<200 650 843 1256>
AnchorPoint: "ogonek" 850 0 basechar 0
AnchorPoint: "bottom" 826 0 basechar 0
AnchorPoint: "top" 656 1536 basechar 0
AnchorPoint: "ogonek" 852 0 basechar 0
AnchorPoint: "bottom" 828 0 basechar 0
AnchorPoint: "top" 658 1536 basechar 0
LayerCount: 2
UndoRedoHistory
Layer: 1
Undoes
EndUndoes
Redoes
EndRedoes
EndUndoRedoHistory
Fore
SplineSet
194 0 m 1
 194 1456 l 1
 1052 1456 l 1
 1052 1256 l 1
 444 1256 l 1
 444 843 l 1
 1010 843 l 1
 1010 650 l 1
 444 650 l 1
 444 200 l 1
 1072 200 l 1
 1072 0 l 1
 194 0 l 1
EndSplineSet
EndChar

StartChar: F
Encoding: 39 70 57
Width: 1159
Flags: W
HStem: 0 21G<194 444> 672 193<444 1002> 1256 200<444 1035>
VStem: 194 250<0 672 865 1256>
AnchorPoint: "bottom" 676 0 basechar 0
AnchorPoint: "top" 700 1536 basechar 0
AnchorPoint: "bottom" 678 0 basechar 0
AnchorPoint: "top" 702 1536 basechar 0
LayerCount: 2
UndoRedoHistory
Layer: 1
Undoes
EndUndoes
Redoes
EndRedoes
EndUndoRedoHistory
Fore
SplineSet
194 0 m 1
 194 1456 l 1
 1035 1456 l 1
 1035 1256 l 1
 444 1256 l 1
 444 865 l 1
 1002 865 l 1
 1002 672 l 1
 444 672 l 1
 444 0 l 1
 194 0 l 1
EndSplineSet
EndChar

StartChar: G
Encoding: 40 71 58
Width: 1496
Flags: W
HStem: -24 208<644.924 1093.3> 595 178<743 1096> 1272 208<663.604 1088.06>
VStem: 116 266<463.766 955.159> 1096 244<210.112 595>
AnchorPoint: "bottom" 826 0 basechar 0
AnchorPoint: "top" 790 1536 basechar 0
AnchorPoint: "bottom" 826 0 basechar 0
AnchorPoint: "top" 790 1536 basechar 0
LayerCount: 2
UndoRedoHistory
Layer: 1
Undoes
EndUndoes
Redoes
EndRedoes
EndUndoRedoHistory
Fore
SplineSet
836 -24 m 0
 408 -24 116 256 116 687 c 0
 116 1159 422 1480 858 1480 c 0
 1101 1480 1230 1403 1313 1351 c 5
 1226 1162 l 5
 1173 1191 1034 1272 867 1272 c 0
 564 1272 382 1033 382 701 c 0
 382 391 562 184 848 184 c 0
 943 184 1033 198 1096 227 c 1
 1096 595 l 1
 743 595 l 1
 743 773 l 1
 1340 773 l 1
 1340 78 l 1
 1208 16 1005 -24 836 -24 c 0
EndSplineSet
EndChar

StartChar: H
Encoding: 41 72 59
Width: 1557
Flags: W
HStem: 0 21G<194 444 1113 1363> 635 215<444 1113> 1436 20G<194 444 1113 1363>
VStem: 194 250<0 635 850 1456> 1113 250<0 635 850 1456>
AnchorPoint: "bottom" 788 0 basechar 0
AnchorPoint: "top" 793 1536 basechar 0
AnchorPoint: "bottom" 790 0 basechar 0
AnchorPoint: "top" 795 1536 basechar 0
LayerCount: 2
UndoRedoHistory
Layer: 1
Undoes
EndUndoes
Redoes
EndRedoes
EndUndoRedoHistory
Fore
SplineSet
194 0 m 1
 194 1456 l 1
 444 1456 l 1
 444 850 l 1
 1113 850 l 1
 1113 1456 l 1
 1363 1456 l 1
 1363 0 l 1
 1113 0 l 1
 1113 635 l 1
 444 635 l 1
 444 0 l 1
 194 0 l 1
EndSplineSet
EndChar

StartChar: I
Encoding: 42 73 60
Width: 802
Flags: W
HStem: 0 182<102 276 526 700> 1274 182<102 276 526 700>
VStem: 276 250<182 1274>
AnchorPoint: "bottom" 286 1 basechar 0
AnchorPoint: "top" 289 1536 basechar 0
AnchorPoint: "bottom" 396 1 basechar 0
AnchorPoint: "top" 406 1456 basechar 0
LayerCount: 2
UndoRedoHistory
Layer: 1
Undoes
EndUndoes
Redoes
EndRedoes
EndUndoRedoHistory
Fore
SplineSet
700 0 m 1
 102 0 l 1
 102 182 l 1
 276 182 l 1
 276 1274 l 1
 102 1274 l 1
 102 1456 l 1
 700 1456 l 1
 700 1274 l 1
 526 1274 l 1
 526 182 l 1
 700 182 l 1
 700 0 l 1
EndSplineSet
EndChar

StartChar: J
Encoding: 43 74 61
Width: 1127
Flags: W
HStem: -24 208<241.842 521.565> 1256 200<241 605 848 1111>
VStem: 605 243<271.994 1256>
AnchorPoint: "top" 550 1536 basechar 0
AnchorPoint: "top" 718 1536 basechar 0
LayerCount: 2
UndoRedoHistory
Layer: 1
Undoes
EndUndoes
Redoes
EndRedoes
EndUndoRedoHistory
Fore
SplineSet
24 145 m 1
 142 310 l 1
 223 217 319 181 402 184 c 0
 516 188 605 268 605 428 c 2
 605 1256 l 1
 241 1256 l 1
 241 1456 l 1
 1111 1456 l 1
 1111 1256 l 1
 848 1256 l 1
 848 447 l 2
 848 125 642 -24 419 -24 c 0
 264 -24 133 21 24 145 c 1
EndSplineSet
EndChar

StartChar: K
Encoding: 44 75 62
Width: 1287
Flags: W
HStem: 0 21G<194 444 956.493 1291> 1436 20G<194 444 936.943 1257>
VStem: 194 250<0 681 822 1456>
AnchorPoint: "bottom" 726 0 basechar 0
AnchorPoint: "top" 667 1536 basechar 0
AnchorPoint: "bottom" 728 0 basechar 0
AnchorPoint: "top" 669 1536 basechar 0
LayerCount: 2
UndoRedoHistory
Layer: 1
Undoes
EndUndoes
Redoes
EndRedoes
EndUndoRedoHistory
Fore
SplineSet
194 0 m 1
 194 1456 l 1
 444 1456 l 1
 444 822 l 1
 953 1456 l 1
 1257 1456 l 1
 681 773 l 1
 1291 0 l 1
 972 0 l 1
 444 681 l 1
 444 0 l 1
 194 0 l 1
EndSplineSet
EndChar

StartChar: L
Encoding: 45 76 63
Width: 1081
Flags: W
HStem: 0 200<444 1050> 1436 20G<194 444>
VStem: 194 250<200 1456>
AnchorPoint: "bottom" 696 0 basechar 0
AnchorPoint: "top" 580 1536 basechar 0
AnchorPoint: "bottom" 698 0 basechar 0
AnchorPoint: "top" 582 1536 basechar 0
LayerCount: 2
UndoRedoHistory
Layer: 1
Undoes
EndUndoes
Redoes
EndRedoes
EndUndoRedoHistory
Fore
SplineSet
194 0 m 1
 194 1456 l 1
 444 1456 l 1
 444 200 l 1
 1050 200 l 1
 1050 0 l 1
 194 0 l 1
EndSplineSet
EndChar

StartChar: M
Encoding: 46 77 64
Width: 1893
Flags: W
HStem: 0 21G<194 444 1449 1699> 1436 20G<194 497.573 1396.34 1699>
VStem: 194 250<0 1102> 1449 250<0 1085>
AnchorPoint: "bottom" 976 0 basechar 0
AnchorPoint: "top" 970 1536 basechar 0
AnchorPoint: "bottom" 978 0 basechar 0
AnchorPoint: "top" 972 1536 basechar 0
LayerCount: 2
UndoRedoHistory
Layer: 1
Undoes
EndUndoes
Redoes
EndRedoes
EndUndoRedoHistory
Fore
SplineSet
194 0 m 1
 194 1456 l 1
 487 1456 l 1
 865 741 l 1
 947 569 l 1
 1027 743 l 1
 1407 1456 l 1
 1699 1456 l 1
 1699 0 l 1
 1449 0 l 1
 1449 1085 l 1
 1344 871 l 1
 1001 229 l 1
 888 229 l 1
 548 883 l 1
 444 1102 l 1
 444 0 l 1
 194 0 l 1
EndSplineSet
EndChar

StartChar: N
Encoding: 47 78 65
Width: 1621
Flags: W
HStem: 0 21G<194 414 1148.56 1427> 1436 20G<194 468.568 1207 1427>
VStem: 194 220<0 1113> 1207 220<340 1456>
AnchorPoint: "bottom" 804 0 basechar 0
AnchorPoint: "top" 809 1536 basechar 0
AnchorPoint: "bottom" 806 0 basechar 0
AnchorPoint: "top" 811 1536 basechar 0
LayerCount: 2
UndoRedoHistory
Layer: 1
Undoes
EndUndoes
Redoes
EndRedoes
EndUndoRedoHistory
Fore
SplineSet
194 0 m 1
 194 1456 l 1
 455 1456 l 1
 1090 520 l 1
 1207 340 l 1
 1207 1456 l 1
 1427 1456 l 1
 1427 0 l 1
 1162 0 l 1
 523 951 l 1
 414 1113 l 1
 414 0 l 1
 194 0 l 1
EndSplineSet
EndChar

StartChar: O
Encoding: 48 79 66
Width: 1592
Flags: W
HStem: -24 208<615.63 971.835> 1272 208<615.63 971.757>
VStem: 116 266<469.212 982.397> 1210 266<471.605 979.275>
AnchorPoint: "bottom" 826 0 basechar 0
AnchorPoint: "top" 790 1536 basechar 0
AnchorPoint: "bottom" 826 0 basechar 0
AnchorPoint: "top" 790 1536 basechar 0
LayerCount: 2
UndoRedoHistory
Layer: 1
Undoes
EndUndoes
Redoes
EndRedoes
EndUndoRedoHistory
Fore
SplineSet
793 184 m 0
 1041 184 1211 400 1210 724 c 1
 1210 1054 1041 1272 793 1272 c 0
 545 1272 382 1054 382 724 c 0
 382 400 545 184 793 184 c 0
793 -24 m 0
 397 -24 116 276 116 726 c 0
 116 1172 397 1480 793 1480 c 0
 1193 1480 1476 1172 1476 726 c 0
 1476 276 1193 -24 793 -24 c 0
EndSplineSet
EndChar

StartChar: P
Encoding: 49 80 67
Width: 1284
Flags: W
HStem: 0 21G<194 444> 559 203<444 864.434> 1256 200<444 853.119>
VStem: 194 250<0 559 762 1256> 959 256<853.073 1165.58>
AnchorPoint: "bottom" 676 0 basechar 0
AnchorPoint: "top" 700 1536 basechar 0
AnchorPoint: "bottom" 678 0 basechar 0
AnchorPoint: "top" 702 1536 basechar 0
LayerCount: 2
UndoRedoHistory
Layer: 1
Undoes
EndUndoes
Redoes
EndRedoes
EndUndoRedoHistory
Fore
SplineSet
194 0 m 1
 194 1456 l 1
 614 1456 l 2
 1027 1456 1215 1330 1215 1017 c 0
 1215 689 1033 559 637 559 c 2
 444 559 l 1
 444 0 l 1
 194 0 l 1
444 762 m 1
 654 762 l 2
 862 762 959 829 959 1015 c 0
 959 1192 855 1256 636 1256 c 2
 444 1256 l 1
 444 762 l 1
EndSplineSet
EndChar

StartChar: Q
Encoding: 50 81 68
Width: 1592
Flags: W
HStem: -24 208<615.63 958.635> 1272 208<615.63 971.757>
VStem: 116 266<469.212 982.397> 1210 266<471.605 979.275>
LayerCount: 2
UndoRedoHistory
Layer: 1
Undoes
EndUndoes
Redoes
EndRedoes
EndUndoRedoHistory
Fore
SplineSet
1187 -257 m 1
 827 382 l 1
 1005 477 l 1
 1355 -168 l 1
 1187 -257 l 1
793 184 m 0
 1041 184 1211 400 1210 724 c 1
 1210 1054 1041 1272 793 1272 c 0
 545 1272 382 1054 382 724 c 0
 382 400 545 184 793 184 c 0
793 -24 m 0
 397 -24 116 276 116 726 c 0
 116 1172 397 1480 793 1480 c 0
 1193 1480 1476 1172 1476 726 c 0
 1476 276 1193 -24 793 -24 c 0
EndSplineSet
EndChar

StartChar: R
Encoding: 51 82 69
Width: 1347
Flags: W
HStem: 0 21G<194 444 1002.19 1277> 646 183<444 810.885> 1256 200<444 882.623>
VStem: 194 250<0 646 829 1256> 950 252<907.627 1200.79>
AnchorPoint: "bottom" 676 0 basechar 0
AnchorPoint: "top" 700 1536 basechar 0
AnchorPoint: "bottom" 678 0 basechar 0
AnchorPoint: "top" 702 1536 basechar 0
LayerCount: 2
UndoRedoHistory
Layer: 1
Undoes
EndUndoes
Redoes
EndRedoes
EndUndoRedoHistory
Fore
SplineSet
194 0 m 1
 194 1456 l 1
 652 1456 l 2
 1026 1456 1202 1343 1202 1077 c 0
 1202 886 1131 726 910 666 c 1
 964 724 l 1
 1277 0 l 1
 1010 0 l 1
 732 712 l 1
 811 646 l 1
 444 646 l 1
 444 0 l 1
 194 0 l 1
444 829 m 1
 660 829 l 2
 863 829 950 895 950 1062 c 0
 950 1222 865 1256 669 1256 c 2
 444 1256 l 1
 444 829 l 1
EndSplineSet
EndChar

StartChar: S
Encoding: 52 83 70
Width: 1259
Flags: W
HStem: -22 208<424.64 822.974> 1274 208<471.195 879.095>
VStem: 157 258<986.203 1219.2> 903 236<270.408 510.295>
AnchorPoint: "bottom" 587 -1 basechar 0
AnchorPoint: "top" 604 1536 basechar 0
AnchorPoint: "bottom" 587 -1 basechar 0
AnchorPoint: "top" 604 1536 basechar 0
LayerCount: 2
UndoRedoHistory
Layer: 1
Undoes
EndUndoes
Redoes
EndRedoes
EndUndoRedoHistory
Fore
SplineSet
674 -22 m 0
 507 -22 304 35 165 123 c 1
 224 321 l 1
 400 223 545 186 665 186 c 0
 826 186 903 281 903 387 c 0
 903 488 879 561 555 666 c 1
 234 778 157 901 157 1074 c 0
 157 1291 294 1482 648 1482 c 0
 794 1482 955 1441 1087 1360 c 1
 1017 1166 l 1
 891 1233 772 1274 664 1274 c 0
 472 1274 415 1204 415 1107 c 0
 415 1007 441 957 688 868 c 1
 1034 749 1145 644 1139 393 c 0
 1134 166 989 -22 674 -22 c 0
EndSplineSet
EndChar

StartChar: T
Encoding: 53 84 71
Width: 1189
Flags: W
HStem: 0 21G<471 719> 1256 200<61 471 719 1129>
VStem: 471 248<0 1256>
AnchorPoint: "bottom" 692 0 basechar 0
AnchorPoint: "top" 576 1536 basechar 0
AnchorPoint: "bottom" 696 0 basechar 0
AnchorPoint: "top" 580 1536 basechar 0
LayerCount: 2
UndoRedoHistory
Layer: 1
Undoes
EndUndoes
Redoes
EndRedoes
EndUndoRedoHistory
Fore
SplineSet
471 0 m 1
 471 1256 l 1
 61 1256 l 1
 61 1456 l 1
 1129 1456 l 1
 1129 1256 l 1
 719 1256 l 1
 719 0 l 1
 471 0 l 1
EndSplineSet
EndChar

StartChar: U
Encoding: 54 85 72
Width: 1488
Flags: W
HStem: -24 208<571.618 919.745> 1436 20G<159 409 1079 1329>
VStem: 159 250<354.714 1456> 1080 249<348.448 1456>
AnchorPoint: "ogonek" 850 0 basechar 0
AnchorPoint: "bottom" 826 0 basechar 0
AnchorPoint: "top" 656 1536 basechar 0
AnchorPoint: "ogonek" 850 0 basechar 0
AnchorPoint: "bottom" 826 0 basechar 0
AnchorPoint: "top" 656 1536 basechar 0
LayerCount: 2
UndoRedoHistory
Layer: 1
Undoes
EndUndoes
Redoes
EndRedoes
EndUndoRedoHistory
Fore
SplineSet
753 -24 m 0
 406 -24 159 208 159 547 c 2
 159 1456 l 1
 409 1456 l 1
 409 536 l 2
 409 322 546 184 752 184 c 0
 947 184 1080 319 1080 529 c 2
 1079 1456 l 1
 1329 1456 l 1
 1329 558 l 2
 1329 213 1092 -24 753 -24 c 0
EndSplineSet
EndChar

StartChar: V
Encoding: 55 86 73
Width: 1315
Flags: W
HStem: 0 21G<527.747 819.799> 1436 20G<7 285.804 1022.05 1308>
LayerCount: 2
UndoRedoHistory
Layer: 1
Undoes
EndUndoes
Redoes
EndRedoes
EndUndoRedoHistory
Fore
SplineSet
535 0 m 1
 7 1456 l 1
 279 1456 l 1
 560 630 l 1
 675 323 l 1
 782 629 l 1
 1028 1456 l 1
 1308 1456 l 1
 813 0 l 1
 535 0 l 1
EndSplineSet
EndChar

StartChar: W
Encoding: 56 87 74
Width: 2153
Flags: W
HStem: 0 21G<495.791 729.755 1424.28 1658.2> 1436 20G<50 310.914 994.993 1170.95 1848.23 2103>
AnchorPoint: "bottom" 1017 0 basechar 0
AnchorPoint: "top" 1023 1536 basechar 0
AnchorPoint: "bottom" 1017 0 basechar 0
AnchorPoint: "top" 1023 1536 basechar 0
LayerCount: 2
UndoRedoHistory
Layer: 1
Undoes
EndUndoes
Redoes
EndRedoes
EndUndoRedoHistory
Fore
SplineSet
502 0 m 1
 50 1456 l 1
 305 1456 l 1
 554 614 l 1
 621 385 l 1
 707 614 l 1
 1002 1456 l 1
 1164 1456 l 1
 1458 610 l 1
 1539 386 l 1
 1611 614 l 1
 1854 1456 l 1
 2103 1456 l 1
 1652 0 l 1
 1431 0 l 1
 1078 1051 l 1
 723 0 l 1
 502 0 l 1
EndSplineSet
EndChar

StartChar: X
Encoding: 57 88 75
Width: 1349
Flags: W
HStem: 0 21G<12 299.759 1035.7 1320> 1436 20G<61 352.102 1050.64 1337>
LayerCount: 2
UndoRedoHistory
Layer: 1
Undoes
EndUndoes
Redoes
EndRedoes
EndUndoRedoHistory
Fore
SplineSet
1049 0 m 1
 674 564 l 1
 286 0 l 1
 12 0 l 1
 551 751 l 1
 61 1456 l 1
 339 1456 l 1
 698 908 l 1
 1064 1456 l 1
 1337 1456 l 1
 821 720 l 1
 1320 0 l 1
 1049 0 l 1
EndSplineSet
EndChar

StartChar: Y
Encoding: 58 89 76
Width: 1219
Flags: W
HStem: 0 21G<492 742> 1436 20G<-17 265.246 966.692 1236>
VStem: 492 250<0 588>
AnchorPoint: "bottom" 625 0 basechar 0
AnchorPoint: "top" 620 1536 basechar 0
AnchorPoint: "bottom" 625 0 basechar 0
AnchorPoint: "top" 620 1536 basechar 0
LayerCount: 2
UndoRedoHistory
Layer: 1
Undoes
EndUndoes
Redoes
EndRedoes
EndUndoRedoHistory
Fore
SplineSet
492 0 m 1
 492 588 l 1
 -17 1456 l 1
 254 1456 l 1
 615 814 l 1
 978 1456 l 1
 1236 1456 l 1
 742 590 l 1
 742 0 l 1
 492 0 l 1
EndSplineSet
EndChar

StartChar: Z
Encoding: 59 90 77
Width: 1234
Flags: W
HStem: 0 200<405 1134> 1256 200<141 850>
AnchorPoint: "bottom" 676 0 basechar 0
AnchorPoint: "top" 700 1536 basechar 0
AnchorPoint: "bottom" 676 0 basechar 0
AnchorPoint: "top" 700 1536 basechar 0
LayerCount: 2
UndoRedoHistory
Layer: 1
Undoes
EndUndoes
Redoes
EndRedoes
EndUndoRedoHistory
Fore
SplineSet
110 0 m 1
 110 198 l 1
 850 1256 l 1
 141 1256 l 1
 141 1456 l 1
 1142 1456 l 1
 1142 1276 l 1
 405 200 l 1
 1134 200 l 1
 1134 0 l 1
 110 0 l 1
EndSplineSet
EndChar

StartChar: bracketleft
Encoding: 60 91 78
Width: 918
Flags: W
HStem: -204 129<546 738> 1350 130<546 738>
VStem: 287 451<-204 -75 1350 1480> 287 259<-75 1350>
LayerCount: 2
UndoRedoHistory
Layer: 1
Undoes
EndUndoes
Redoes
EndRedoes
EndUndoRedoHistory
Fore
SplineSet
287 -204 m 1xe0
 287 1480 l 1
 738 1480 l 1
 738 1350 l 1xe0
 546 1350 l 1
 546 -75 l 1xd0
 738 -75 l 1
 738 -204 l 1
 287 -204 l 1xe0
EndSplineSet
EndChar

StartChar: backslash
Encoding: 61 92 79
Width: 1229
Flags: W
HStem: 0 21G<784.047 1027> 1436 20G<213 457.926>
LayerCount: 2
UndoRedoHistory
Layer: 1
Undoes
EndUndoes
Redoes
EndRedoes
EndUndoRedoHistory
Fore
SplineSet
792 0 m 1
 213 1456 l 1
 450 1456 l 1
 1027 0 l 1
 792 0 l 1
EndSplineSet
EndChar

StartChar: bracketright
Encoding: 62 93 80
Width: 951
Flags: W
HStem: -222 129<210 403> 1350 130<211 403>
VStem: 211 450<-222 -93 1350 1480> 403 258<-93 1350>
LayerCount: 2
UndoRedoHistory
Layer: 1
Undoes
EndUndoes
Redoes
EndRedoes
EndUndoRedoHistory
Fore
SplineSet
210 -222 m 1xe0
 210 -93 l 1
 403 -93 l 1
 403 1350 l 1xd0
 211 1350 l 1
 211 1480 l 1
 661 1480 l 1
 661 -222 l 1
 210 -222 l 1xe0
EndSplineSet
EndChar

StartChar: asciicircum
Encoding: 63 94 81
Width: 1209
Flags: W
LayerCount: 2
UndoRedoHistory
Layer: 1
Undoes
EndUndoes
Redoes
EndRedoes
EndUndoRedoHistory
Fore
SplineSet
105 570 m 1
 561 1448 l 1
 653 1448 l 1
 1115 570 l 1
 911 570 l 1
 605 1176 l 1
 311 570 l 1
 105 570 l 1
EndSplineSet
EndChar

StartChar: underscore
Encoding: 64 95 82
Width: 937
Flags: W
HStem: -152 128<-6 943>
LayerCount: 2
UndoRedoHistory
Layer: 1
Undoes
EndUndoes
Redoes
EndRedoes
EndUndoRedoHistory
Fore
SplineSet
-6 -152 m 1
 -6 -24 l 1
 943 -24 l 1
 943 -152 l 1
 -6 -152 l 1
EndSplineSet
EndChar

StartChar: grave
Encoding: 65 96 83
Width: 1054
Flags: W
HStem: 1118 318
VStem: 210 519
AnchorPoint: "top" 632.5 1087 mark 0
LayerCount: 2
UndoRedoHistory
Layer: 1
Undoes
EndUndoes
Redoes
EndRedoes
EndUndoRedoHistory
Fore
SplineSet
540 1118 m 1
 210 1436 l 1
 483 1436 l 1
 729 1118 l 1
 540 1118 l 1
EndSplineSet
EndChar

StartChar: a
Encoding: 66 97 84
Width: 1217
Flags: W
HStem: -22 186<436.647 672.011 1052.45 1139> 861 187<528.536 767.983>
VStem: 112 244<249.13 655.031> 770 242<266.932 858.281>
AnchorPoint: "ogonek" 994 0 basechar 0
AnchorPoint: "bottom" 616 0 basechar 0
AnchorPoint: "top" 637 1152 basechar 0
AnchorPoint: "ogonek" 992 0 basechar 0
AnchorPoint: "bottom" 614 0 basechar 0
AnchorPoint: "top" 635 1152 basechar 0
LayerCount: 2
UndoRedoHistory
Layer: 1
Undoes
EndUndoes
Redoes
EndRedoes
EndUndoRedoHistory
Fore
SplineSet
526 -22 m 0
 289 -22 112 170 112 431 c 0
 112 793 345 1038 676 1048 c 0
 832 1053 968 994 1012 976 c 1
 1012 363 l 2
 1012 253 1018 176 1171 176 c 1
 1139 -16 l 1
 992 -16 866 -7 812 151 c 1
 760 46 648 -22 526 -22 c 0
543 164 m 0
 685 164 770 286 770 429 c 2
 770 849 l 1
 770 849 714 867 639 861 c 0
 477 848 356 675 356 420 c 0
 356 268 436 164 543 164 c 0
EndSplineSet
EndChar

StartChar: b
Encoding: 67 98 85
Width: 1231
Flags: W
HStem: -22 186<419.168 702.536> 862 186<543.883 775.356> 1460 20G<176 418>
VStem: 176 242<175.077 715.737 905 1480> 871 248<352.393 751.789>
AnchorPoint: "bottom" 826 0 basechar 0
AnchorPoint: "top" 790 1536 basechar 0
AnchorPoint: "bottom" 826 0 basechar 0
AnchorPoint: "top" 790 1536 basechar 0
LayerCount: 2
UndoRedoHistory
Layer: 1
Undoes
EndUndoes
Redoes
EndRedoes
EndUndoRedoHistory
Fore
SplineSet
579 -22 m 0
 448 -22 315 3 176 55 c 1
 176 1480 l 1
 418 1480 l 1
 418 905 l 1
 493 1005 591 1048 715 1048 c 0
 917 1048 1119 881 1119 565 c 0
 1119 175 834 -22 579 -22 c 0
570 164 m 0
 690 164 871 281 871 561 c 0
 871 728 790 862 673 862 c 0
 540 862 418 740 418 511 c 2
 418 187 l 1
 466 171 516 164 570 164 c 0
EndSplineSet
EndChar

StartChar: c
Encoding: 68 99 86
Width: 1037
Flags: W
HStem: -22 186<494.505 846.602> 862 186<493.189 835.513>
VStem: 116 248<306.68 721.337>
AnchorPoint: "bottom" 599 0 basechar 0
AnchorPoint: "top" 597 1152 basechar 0
AnchorPoint: "bottom" 599 0 basechar 0
AnchorPoint: "top" 597 1152 basechar 0
LayerCount: 2
UndoRedoHistory
Layer: 1
Undoes
EndUndoes
Redoes
EndRedoes
EndUndoRedoHistory
Fore
SplineSet
623 -22 m 0
 347 -22 116 148 116 519 c 0
 116 883 356 1048 629 1048 c 0
 730 1048 844 1023 941 960 c 1
 876 798 l 1
 797 841 712 862 647 862 c 0
 477 862 364 743 364 520 c 0
 364 248 508 164 650 164 c 0
 725 164 816 183 898 236 c 1
 971 81 l 1
 857 5 736 -22 623 -22 c 0
EndSplineSet
EndChar

StartChar: d
Encoding: 69 100 87
Width: 1258
Flags: W
HStem: -22 186<456.088 695.863 1099.23 1180> 862 186<521.182 808.608> 1450 20G<811 1053>
VStem: 112 248<273.055 681.406> 811 242<292.6 850.581 1022 1470>
AnchorPoint: "bottom" 826 0 basechar 0
AnchorPoint: "top" 790 1536 basechar 0
AnchorPoint: "bottom" 826 0 basechar 0
AnchorPoint: "top" 790 1536 basechar 0
LayerCount: 2
UndoRedoHistory
Layer: 1
Undoes
EndUndoes
Redoes
EndRedoes
EndUndoRedoHistory
Fore
SplineSet
360 456 m 0
 360 274 461 164 568 164 c 0
 690 164 811 269 811 498 c 2
 811 839 l 1
 767 852 718 862 669 862 c 0
 516 862 360 736 360 456 c 0
853 150 m 1
 785 41 658 -22 531 -22 c 0
 336 -22 112 125 112 450 c 0
 112 841 384 1048 639 1048 c 0
 696 1048 753 1039 811 1022 c 1
 811 1470 l 1
 1053 1470 l 1
 1053 365 l 2
 1053 217 1088 176 1212 176 c 1
 1180 -16 l 1
 969 -16 903 24 853 150 c 1
EndSplineSet
EndChar

StartChar: e
Encoding: 70 101 88
Width: 1105
Flags: W
HStem: -22 186<496.952 857.146> 867 181<486.234 707.125>
VStem: 112 240<523 712.722> 730 234<650.834 845.327>
AnchorPoint: "ogonek" 869 56 basechar 0
AnchorPoint: "bottom" 656 0 basechar 0
AnchorPoint: "top" 608 1152 basechar 0
AnchorPoint: "ogonek" 869 56 basechar 0
AnchorPoint: "bottom" 656 0 basechar 0
AnchorPoint: "top" 608 1152 basechar 0
LayerCount: 2
UndoRedoHistory
Layer: 1
Undoes
EndUndoes
Redoes
EndRedoes
EndUndoRedoHistory
Fore
SplineSet
1031 100 m 1
 920 3 767 -22 641 -22 c 0
 348 -22 112 173 112 514 c 0
 112 816 333 1048 616 1048 c 0
 841 1048 964 897 964 750 c 0
 964 566 800 425 374 359 c 1
 408 240 531 164 672 164 c 0
 761 164 857 196 943 259 c 1
 1031 100 l 1
352 538 m 2
 352 523 l 1
 644 587 730 644 730 758 c 0
 730 823 683 867 605 867 c 0
 452 867 352 690 352 538 c 2
EndSplineSet
EndChar

StartChar: f
Encoding: 71 102 89
Width: 805
Flags: W
HStem: 0 21G<261 503> 862 164<75 261 503 733> 1292 188<550.586 783>
VStem: 261 242<0 862 1026 1239.13>
AnchorPoint: "bottom" 366 0 basechar 0
AnchorPoint: "top" 543 1464 basechar 0
AnchorPoint: "bottom" 366 0 basechar 0
AnchorPoint: "top" 543 1464 basechar 0
LayerCount: 2
UndoRedoHistory
Layer: 1
Undoes
EndUndoes
Redoes
EndRedoes
EndUndoRedoHistory
Fore
SplineSet
503 0 m 1
 261 0 l 1
 261 862 l 1
 75 862 l 1
 75 1026 l 1
 261 1026 l 1
 261 1096 l 2
 261 1386 407 1480 680 1480 c 2
 783 1480 l 1
 783 1292 l 1
 698 1292 l 2
 540 1292 503 1223 503 1061 c 2
 503 1026 l 1
 733 1026 l 1
 733 862 l 1
 503 862 l 1
 503 0 l 1
EndSplineSet
EndChar

StartChar: g
Encoding: 72 103 90
Width: 1206
Flags: W
HStem: -522 195<328.943 693.525> 0 191<458.609 689.697> 862 186<514.797 810.782>
VStem: 112 248<301.51 687.366> 812 242<-201.375 129 334.274 850.049>
AnchorPoint: "bottom" 588 -512 basechar 0
AnchorPoint: "top" 652 1027 basechar 0
AnchorPoint: "bottom" 588 -512 basechar 0
AnchorPoint: "top" 652 1027 basechar 0
LayerCount: 2
UndoRedoHistory
Layer: 1
Undoes
EndUndoes
Redoes
EndRedoes
EndUndoRedoHistory
Fore
SplineSet
557 -522 m 0
 446 -522 299 -492 181 -429 c 1
 222 -227 l 1
 316 -287 428 -327 534 -327 c 0
 674 -327 812 -251 812 -10 c 2
 812 129 l 1
 744 36 634 0 538 0 c 0
 294 0 112 199 112 460 c 0
 112 806 331 1048 664 1048 c 0
 791 1048 958 998 1054 942 c 1
 1054 36 l 2
 1054 -320 830 -522 557 -522 c 0
567 191 m 0
 715 191 812 352 812 545 c 2
 812 837 l 1
 776 851 718 862 665 862 c 0
 496 862 360 725 360 470 c 0
 360 318 456 191 567 191 c 0
EndSplineSet
EndChar

StartChar: h
Encoding: 73 104 91
Width: 1300
Flags: W
HStem: -16 193<1102.62 1200> 0 21G<176 418> 862 186<518.067 765.489> 1450 20G<176 418>
VStem: 176 242<0 766.292 931 1470> 834 242<207.319 787.112>
AnchorPoint: "bottom" 645 0 basechar 0
AnchorPoint: "top" 737 1260 basechar 0
AnchorPoint: "bottom" 645 0 basechar 0
AnchorPoint: "top" 737 1260 basechar 0
LayerCount: 2
UndoRedoHistory
Layer: 1
Undoes
EndUndoes
Redoes
EndRedoes
EndUndoRedoHistory
Fore
SplineSet
1200 -16 m 1xbc
 1155 -16 l 2xbc
 920 -16 834 88 834 298 c 2
 834 606 l 2
 834 759 774 862 646 862 c 0
 484 862 418 734 418 595 c 2
 418 0 l 1
 176 0 l 1x7c
 176 1470 l 1
 418 1470 l 1
 418 931 l 1
 498 1015 613 1048 704 1048 c 0
 931 1048 1076 875 1076 608 c 2
 1076 352 l 2
 1076 224 1105 177 1212 177 c 2
 1234 177 l 1
 1200 -16 l 1xbc
EndSplineSet
EndChar

StartChar: i
Encoding: 74 105 92
Width: 785
Flags: W
HStem: 1006 20G<197 439> 1188 292<200.85 446.799>
VStem: 162 324<1226.5 1439.12> 197 242<202.551 1026>
AnchorPoint: "bottom" 248 1 basechar 0
AnchorPoint: "bottom" 248 1 basechar 0
LayerCount: 2
UndoRedoHistory
Layer: 1
Undoes
EndUndoes
Redoes
EndRedoes
EndUndoRedoHistory
Fore
SplineSet
747 33 m 1xd0
 487 -70 197 -26 197 337 c 2
 197 1026 l 1
 439 1026 l 1
 439 334 l 2
 439 158 544 155 716 203 c 1
 747 33 l 1xd0
323 1188 m 0
 225 1188 162 1242 162 1334 c 0
 162 1426 225 1480 325 1480 c 0
 422 1480 486 1424 486 1333 c 0xe0
 486 1242 422 1188 323 1188 c 0
EndSplineSet
EndChar

StartChar: j
Encoding: 75 106 93
Width: 660
Flags: W
HStem: -499 176<-47.1533 194.588> 1006 20G<239 481> 1188 292<248.85 494.799>
VStem: 210 324<1226.5 1439.12> 239 242<-281.254 1026>
AnchorPoint: "bottom" 676 0 basechar 0
AnchorPoint: "top" 700 1536 basechar 0
LayerCount: 2
UndoRedoHistory
Layer: 1
Undoes
EndUndoes
Redoes
EndRedoes
EndUndoRedoHistory
Fore
SplineSet
371 1188 m 0xf0
 273 1188 210 1242 210 1334 c 0
 210 1426 273 1480 373 1480 c 0
 470 1480 534 1424 534 1333 c 0
 534 1242 470 1188 371 1188 c 0xf0
111 -499 m 4
 8 -499 -65 -475 -65 -475 c 5
 -44 -305 l 5
 -44 -305 21 -323 89 -323 c 4
 187 -323 239 -280 239 -90 c 6
 239 1026 l 5
 481 1026 l 5
 481 -93 l 6xe8
 481 -325 417 -499 111 -499 c 4
EndSplineSet
EndChar

StartChar: k
Encoding: 76 107 94
Width: 1213
Flags: W
HStem: 0 21G<192 434 866.269 1159> 1006 20G<843.408 1147> 1450 20G<192 434>
VStem: 192 242<0 1470>
AnchorPoint: "bottom" 616 -1 basechar 0
AnchorPoint: "top" 767 1152 basechar 0
AnchorPoint: "bottom" 616 -1 basechar 0
AnchorPoint: "top" 767 1152 basechar 0
LayerCount: 2
UndoRedoHistory
Layer: 1
Undoes
EndUndoes
Redoes
EndRedoes
EndUndoRedoHistory
Fore
SplineSet
1159 0 m 1
 885 0 l 1
 383 536 l 1
 863 1026 l 1
 1147 1026 l 1
 670 536 l 1
 1159 0 l 1
434 0 m 1
 192 0 l 1
 192 1470 l 1
 434 1470 l 1
 434 0 l 1
EndSplineSet
EndChar

StartChar: l
Encoding: 77 108 95
Width: 813
Flags: W
HStem: 1450 20G<192 434>
VStem: 192 242<215.492 1470>
AnchorPoint: "bottom" 264 0 basechar 0
AnchorPoint: "top" 266 1474 basechar 0
AnchorPoint: "bottom" 264 0 basechar 0
AnchorPoint: "top" 266 1474 basechar 0
LayerCount: 2
UndoRedoHistory
Layer: 1
Undoes
EndUndoes
Redoes
EndRedoes
EndUndoRedoHistory
Fore
SplineSet
783 33 m 1
 503 -70 192 -26 192 337 c 2
 192 1470 l 1
 434 1470 l 1
 434 334 l 2
 434 158 550 155 752 203 c 1
 783 33 l 1
EndSplineSet
EndChar

StartChar: m
Encoding: 78 109 96
Width: 1941
Flags: W
HStem: -16 192<1741.18 1841> 0 21G<202 444 841 1083> 862 186<532.881 769.699 1166.36 1400.72> 1006 20G<251.989 322>
VStem: 202 242<0 763.126> 841 242<0 771.779> 1472 242<206.549 779.227>
AnchorPoint: "bottom" 946 0 basechar 0
AnchorPoint: "top" 952 1024 basechar 0
AnchorPoint: "bottom" 946 0 basechar 0
AnchorPoint: "top" 952 1024 basechar 0
LayerCount: 2
UndoRedoHistory
Layer: 1
Undoes
EndUndoes
Redoes
EndRedoes
EndUndoRedoHistory
Fore
SplineSet
1841 -16 m 1xae
 1811 -16 l 2xae
 1545 -16 1472 117 1472 339 c 2
 1472 606 l 2
 1472 759 1410 862 1280 862 c 0
 1174 862 1083 762 1083 614 c 2
 1083 0 l 1
 841 0 l 1
 841 606 l 2
 841 779 760 862 652 862 c 0x6e
 528 862 444 747 444 591 c 2
 444 0 l 1
 202 0 l 1
 202 641 l 2
 202 742 171 858 76 937 c 1
 303 1026 l 1x5e
 341 998 390 930 403 881 c 1
 464 997 599 1048 723 1048 c 0
 869 1048 967 964 1015 862 c 1
 1097 1008 1242 1048 1336 1048 c 0
 1572 1048 1714 875 1714 608 c 2
 1714 357 l 2
 1714 237 1736 176 1850 176 c 2
 1875 176 l 1
 1841 -16 l 1xae
EndSplineSet
EndChar

StartChar: n
Encoding: 79 110 97
Width: 1327
Flags: W
HStem: -16 192<1134.22 1227> 0 21G<205 447> 862 186<553.691 795.549> 1006 20G<251.213 326>
VStem: 205 242<0 754.246> 858 242<203.797 798.657>
AnchorPoint: "bottom" 676 0 basechar 0
AnchorPoint: "top" 700 1536 basechar 0
AnchorPoint: "bottom" 676 0 basechar 0
AnchorPoint: "top" 700 1536 basechar 0
LayerCount: 2
UndoRedoHistory
Layer: 1
Undoes
EndUndoes
Redoes
EndRedoes
EndUndoRedoHistory
Fore
SplineSet
1261 176 m 1xac
 1227 -16 l 1
 1192 -16 l 2
 931 -16 858 121 858 368 c 2
 858 604 l 2
 858 757 815 862 681 862 c 0xac
 568 862 447 767 447 592 c 2
 447 0 l 1
 205 0 l 1
 205 643 l 2
 205 764 163 860 76 937 c 1
 302 1026 l 1x5c
 350 989 394 919 406 873 c 1
 455 967 583 1048 740 1048 c 0
 969 1048 1100 875 1100 608 c 2
 1100 345 l 2
 1100 236 1123 176 1244 176 c 2
 1261 176 l 1xac
EndSplineSet
EndChar

StartChar: o
Encoding: 80 111 98
Width: 1218
Flags: W
HStem: -22 186<470.237 746.284> 862 186<469.245 745.124>
VStem: 112 248<291.588 739.223> 858 248<292.01 733.795>
AnchorPoint: "ogonek" 726 0 basechar 0
AnchorPoint: "bottom" 826 0 basechar 0
AnchorPoint: "top" 619 1152 basechar 0
AnchorPoint: "ogonek" 726 0 basechar 0
AnchorPoint: "bottom" 826 0 basechar 0
AnchorPoint: "top" 619 1152 basechar 0
LayerCount: 2
UndoRedoHistory
Layer: 1
Undoes
EndUndoes
Redoes
EndRedoes
EndUndoRedoHistory
Fore
SplineSet
609 164 m 0
 779 164 858 299 858 512 c 0
 858 725 778 862 607 862 c 0
 436 862 360 725 360 512 c 0
 360 299 437 164 609 164 c 0
607 -22 m 0
 296 -22 112 195 112 512 c 0
 112 830 295 1048 606 1048 c 0
 921 1048 1106 832 1106 513 c 0
 1106 196 923 -22 607 -22 c 0
EndSplineSet
EndChar

StartChar: p
Encoding: 81 112 99
Width: 1240
Flags: W
HStem: -548 21G<183 425> -22 186<427.658 727.851> 862 186<552.704 785.615> 1006 20G<229.213 294.5>
VStem: 183 242<-548 4 175.278 708.816> 880 248<343.407 757.88>
AnchorPoint: "bottom" 826 0 basechar 0
AnchorPoint: "top" 790 1536 basechar 0
AnchorPoint: "bottom" 826 0 basechar 0
AnchorPoint: "top" 790 1536 basechar 0
LayerCount: 2
UndoRedoHistory
Layer: 1
Undoes
EndUndoes
Redoes
EndRedoes
EndUndoRedoHistory
Fore
SplineSet
183 -548 m 1xec
 183 651 l 2
 183 814 90 906 54 937 c 1
 280 1026 l 1xdc
 309 1005 363 922 384 849 c 1
 443 964 553 1048 734 1048 c 0
 908 1048 1128 923 1128 574 c 0
 1128 221 920 -22 599 -22 c 0
 531 -22 492 -14 425 4 c 1
 425 -548 l 1
 183 -548 l 1xec
425 188 m 1
 472 173 509 164 563 164 c 0
 770 164 880 322 880 572 c 0
 880 731 803 862 673 862 c 0xec
 542 862 425 729 425 490 c 2
 425 188 l 1
EndSplineSet
EndChar

StartChar: q
Encoding: 82 113 100
Width: 1251
Flags: W
HStem: -22 186<460.729 686.689> 862 186<524.972 821.991>
VStem: 112 248<283.156 674.665> 824 242<-357 107 328.697 850.277>
LayerCount: 2
UndoRedoHistory
Layer: 1
Undoes
EndUndoes
Redoes
EndRedoes
EndUndoRedoHistory
Fore
SplineSet
1095 -552 m 1
 919 -619 824 -529 824 -391 c 2
 824 107 l 1
 756 14 634 -22 538 -22 c 0
 294 -22 112 183 112 444 c 0
 112 790 331 1048 664 1048 c 0
 791 1048 970 998 1066 942 c 1
 1066 -357 l 1
 1328 -226 l 1
 1377 -405 l 1
 1095 -552 l 1
567 164 m 0
 715 164 824 336 824 529 c 2
 824 838 l 1
 788 852 718 862 665 862 c 0
 496 862 360 709 360 454 c 0
 360 302 456 164 567 164 c 0
EndSplineSet
EndChar

StartChar: r
Encoding: 83 114 101
Width: 890
Flags: W
HStem: 0 21G<211 453> 831 213<556.668 815.299> 1006 20G<257.213 327.5>
VStem: 211 242<0 718.012>
AnchorPoint: "bottom" 338 -3 basechar 0
AnchorPoint: "top" 487 1152 basechar 0
AnchorPoint: "bottom" 338 -3 basechar 0
AnchorPoint: "top" 487 1152 basechar 0
LayerCount: 2
UndoRedoHistory
Layer: 1
Undoes
EndUndoes
Redoes
EndRedoes
EndUndoRedoHistory
Fore
SplineSet
211 0 m 1xd0
 211 652 l 2
 211 801 131 898 82 937 c 1
 308 1026 l 1xb0
 347 988 383 952 412 864 c 1
 472 993 591 1044 699 1044 c 0
 779 1044 820 1027 832 1022 c 1
 814 815 l 1
 770 826 733 831 698 831 c 0
 507 831 453 648 453 566 c 2
 453 0 l 1
 211 0 l 1xd0
EndSplineSet
EndChar

StartChar: s
Encoding: 84 115 102
Width: 953
Flags: W
HStem: -22 186<280.772 610.17> 862 186<386.872 728.08>
VStem: 140 231<687.354 842.143> 630 221<185.399 363.689>
AnchorPoint: "bottom" 501 0 basechar 0
AnchorPoint: "top" 500 1152 basechar 0
AnchorPoint: "bottom" 501 0 basechar 0
AnchorPoint: "top" 500 1152 basechar 0
LayerCount: 2
UndoRedoHistory
Layer: 1
Undoes
EndUndoes
Redoes
EndRedoes
EndUndoRedoHistory
Fore
SplineSet
500 -22 m 0
 348 -22 212 34 151 67 c 1
 203 242 l 1
 238 224 366 164 500 164 c 0
 597 164 630 218 630 275 c 0
 630 352 582 383 425 441 c 1
 208 513 140 610 140 754 c 0
 140 882 230 1048 487 1048 c 0
 668 1048 786 988 813 973 c 1
 757 806 l 1
 670 844 584 862 512 862 c 0
 429 862 371 835 371 769 c 0
 371 711 413 668 541 625 c 1
 765 554 850 469 851 304 c 1
 851 107 734 -22 500 -22 c 0
EndSplineSet
EndChar

StartChar: t
Encoding: 85 116 103
Width: 890
Flags: W
HStem: 33 175<659.269 831> 862 164<32 236 478 780>
VStem: 236 242<215.492 862 1026 1269>
AnchorPoint: "bottom" 501 0 basechar 0
AnchorPoint: "top" 500 1152 basechar 0
AnchorPoint: "bottom" 501 0 basechar 0
AnchorPoint: "top" 500 1152 basechar 0
LayerCount: 2
UndoRedoHistory
Layer: 1
Undoes
EndUndoes
Redoes
EndRedoes
EndUndoRedoHistory
Fore
SplineSet
862 33 m 1
 542 -70 236 -26 236 337 c 2
 236 862 l 1
 32 862 l 1
 32 1026 l 1
 236 1026 l 1
 236 1269 l 1
 478 1343 l 1
 478 1026 l 1
 780 1026 l 1
 780 862 l 1
 478 862 l 1
 478 334 l 2
 478 158 611 149 831 208 c 1
 862 33 l 1
EndSplineSet
EndChar

StartChar: u
Encoding: 86 117 104
Width: 1257
Flags: W
HStem: -16 192<1077.07 1176> 1006 20G<204.667 371.734 807 1049>
VStem: 169 242<226.696 988.434> 807 242<240.067 1026>
AnchorPoint: "ogonek" 947 0 basechar 0
AnchorPoint: "bottom" 587 0 basechar 0
AnchorPoint: "top" 600 1152 basechar 0
AnchorPoint: "ogonek" 947 0 basechar 0
AnchorPoint: "bottom" 587 0 basechar 0
AnchorPoint: "top" 600 1152 basechar 0
LayerCount: 2
UndoRedoHistory
Layer: 1
Undoes
EndUndoes
Redoes
EndRedoes
EndUndoRedoHistory
Fore
SplineSet
528 -22 m 0
 304 -22 169 129 169 354 c 2
 169 524 l 2
 169 834 122 996 122 996 c 1
 370 1026 l 1
 370 1026 411 880 411 553 c 2
 411 377 l 2
 411 251 470 172 578 165 c 0
 715 156 807 227 807 409 c 2
 807 1026 l 1
 1049 1026 l 1
 1049 360 l 2
 1049 244 1059 176 1208 176 c 1
 1176 -16 l 1
 1014 -16 903 -1 849 151 c 1
 801 50 686 -22 528 -22 c 0
EndSplineSet
EndChar

StartChar: v
Encoding: 87 118 105
Width: 1036
Flags: W
HStem: 0 21G<426.852 644.446> 1006 20G<17 277.454 763.247 1019>
LayerCount: 2
UndoRedoHistory
Layer: 1
Undoes
EndUndoes
Redoes
EndRedoes
EndUndoRedoHistory
Fore
SplineSet
435 0 m 1
 17 1026 l 1
 270 1026 l 1
 472 484 l 1
 533 325 l 1
 587 484 l 1
 770 1026 l 1
 1019 1026 l 1
 637 0 l 1
 435 0 l 1
EndSplineSet
EndChar

StartChar: w
Encoding: 88 119 106
Width: 1639
Flags: W
HStem: 0 21G<415.417 629.976 1037.47 1246.13> 1006 20G<34 287.827 1364.32 1605>
AnchorPoint: "bottom" 840 0 basechar 0
AnchorPoint: "top" 843 1024 basechar 0
AnchorPoint: "bottom" 840 0 basechar 0
AnchorPoint: "top" 843 1024 basechar 0
LayerCount: 2
UndoRedoHistory
Layer: 1
Undoes
EndUndoes
Redoes
EndRedoes
EndUndoRedoHistory
Fore
SplineSet
423 0 m 1
 34 1026 l 1
 281 1026 l 1
 466 484 l 1
 522 325 l 1
 577 484 l 1
 740 995 l 1
 897 995 l 1
 1079 484 l 1
 1136 325 l 1
 1190 484 l 1
 1371 1026 l 1
 1605 1026 l 1
 1239 0 l 1
 1045 0 l 1
 826 582 l 1
 623 0 l 1
 423 0 l 1
EndSplineSet
EndChar

StartChar: x
Encoding: 89 120 107
Width: 1118
Flags: W
HStem: 0 21G<32 311.684 769.814 1086> 1006 20G<77 375.313 777.295 1069>
LayerCount: 2
UndoRedoHistory
Layer: 1
Undoes
EndUndoes
Redoes
EndRedoes
EndUndoRedoHistory
Fore
SplineSet
32 0 m 1
 426 535 l 1
 77 1026 l 1
 362 1026 l 1
 581 697 l 1
 790 1026 l 1
 1069 1026 l 1
 705 520 l 1
 1086 0 l 1
 783 0 l 1
 545 361 l 1
 298 0 l 1
 32 0 l 1
EndSplineSet
EndChar

StartChar: y
Encoding: 90 121 108
Width: 1254
Flags: W
HStem: -522 195<369.35 730.131> -1 192<484.254 750.6> 1006 20G<199.667 365.673 850 1092>
VStem: 177 242<257.657 954.737> 850 242<-203.484 53 297.394 1026>
AnchorPoint: "top" 536 1024 basechar 0
AnchorPoint: "top" 536 1024 basechar 0
LayerCount: 2
UndoRedoHistory
Layer: 1
Undoes
EndUndoes
Redoes
EndRedoes
EndUndoRedoHistory
Fore
SplineSet
592 -522 m 0
 478 -522 336 -490 219 -429 c 1
 260 -227 l 1
 345 -282 467 -327 570 -327 c 0
 693 -327 850 -270 850 -10 c 2
 850 208 l 1
 911 205 l 1
 869 107 777 -1 566 -1 c 0
 337 -1 177 151 177 376 c 2
 177 594 l 2
 177 874 118 996 118 996 c 1
 363 1026 l 1
 363 1026 419 914 419 607 c 2
 419 402 l 2
 419 268 496 191 610 191 c 0
 768 191 850 300 850 503 c 2
 850 1026 l 1
 1092 1026 l 1
 1092 53 l 2
 1092 -342 858 -522 592 -522 c 0
EndSplineSet
EndChar

StartChar: z
Encoding: 91 122 109
Width: 998
Flags: W
HStem: 0 170<418 910> 856 170<128 600>
AnchorPoint: "bottom" 555 0 basechar 0
AnchorPoint: "top" 506 1024 basechar 0
AnchorPoint: "bottom" 555 0 basechar 0
AnchorPoint: "top" 506 1024 basechar 0
LayerCount: 2
UndoRedoHistory
Layer: 1
Undoes
EndUndoes
Redoes
EndRedoes
EndUndoRedoHistory
Fore
SplineSet
122 0 m 1
 122 155 l 1
 600 856 l 1
 128 856 l 1
 128 1026 l 1
 888 1026 l 1
 888 873 l 1
 418 170 l 1
 910 170 l 1
 910 0 l 1
 122 0 l 1
EndSplineSet
EndChar

StartChar: braceleft
Encoding: 92 123 110
Width: 933
Flags: W
HStem: -196 168<637.715 786> 586 182<160 276.893> 1384 168<640.905 786>
VStem: 345 250<16.0702 518.408 838.771 1343.37>
LayerCount: 2
UndoRedoHistory
Layer: 1
Undoes
EndUndoes
Redoes
EndRedoes
EndUndoRedoHistory
Fore
SplineSet
786 -196 m 1
 568 -196 345 -107 345 122 c 2
 345 299 l 2
 345 473 320 569 160 586 c 1
 160 768 l 1
 301 781 345 869 345 1024 c 2
 345 1190 l 2
 345 1440 533 1552 786 1552 c 1
 786 1384 l 1
 651 1384 595 1343 595 1207 c 2
 595 998 l 2
 595 843 508 729 411 677 c 1
 519 626 595 513 595 360 c 2
 595 203 l 2
 595 42 616 -28 786 -28 c 1
 786 -196 l 1
EndSplineSet
EndChar

StartChar: bar
Encoding: 93 124 111
Width: 844
Flags: W
VStem: 306 232<-126 1570>
LayerCount: 2
UndoRedoHistory
Layer: 1
Undoes
EndUndoes
Redoes
EndRedoes
EndUndoRedoHistory
Fore
SplineSet
306 -126 m 1
 306 1570 l 1
 538 1570 l 1
 538 -126 l 1
 306 -126 l 1
EndSplineSet
EndChar

StartChar: braceright
Encoding: 94 125 112
Width: 973
Flags: W
HStem: -326 148<190 323.679> 536 142<645.409 753> 1404 148<190 326.228>
VStem: 375 194<-129.757 469.514 760.372 1352.03>
LayerCount: 2
UndoRedoHistory
Layer: 1
Undoes
EndUndoes
Redoes
EndRedoes
EndUndoRedoHistory
Fore
SplineSet
190 -326 m 1
 190 -178 l 1
 350 -178 379 -107 379 103 c 2
 379 290 l 2
 379 443 432 556 540 607 c 1
 440 659 375 772 375 928 c 2
 375 1207 l 2
 375 1343 322 1400 190 1404 c 1
 190 1552 l 1
 442 1552 569 1440 569 1190 c 2
 569 954 l 2
 569 799 614 691 755 678 c 1
 753 536 l 1
 634 524 572 455 571 335 c 2
 569 -8 l 2
 568 -237 408 -317 190 -326 c 1
EndSplineSet
EndChar

StartChar: asciitilde
Encoding: 95 126 113
Width: 1535
Flags: W
HStem: 667 446
VStem: 198 147<715.734 763.83> 1219 147<1012.52 1071.49>
LayerCount: 2
UndoRedoHistory
Layer: 1
Undoes
EndUndoes
Redoes
EndRedoes
EndUndoRedoHistory
Fore
SplineSet
345 667 m 1
 198 721 l 1
 249 1035 491 1148 709 1043 c 2
 948 928 l 2
 1110 850 1169 978 1219 1113 c 1
 1366 1067 l 1
 1309 769 1147 586 869 724 c 2
 639 838 l 2
 474 920 372 793 345 667 c 1
EndSplineSet
EndChar

StartChar: dagger
Encoding: 298 8224 146
Width: 1769
Flags: W
HStem: 1163 155<198 568 724 1113>
VStem: 568 142<199 1163 1318 1770>
LayerCount: 2
UndoRedoHistory
Layer: 1
Undoes
EndUndoes
Redoes
EndRedoes
EndUndoRedoHistory
Fore
SplineSet
568 199 m 1
 568 1163 l 1
 198 1163 l 1
 198 1318 l 1
 568 1318 l 1
 568 1770 l 1
 724 1770 l 1
 724 1318 l 1
 1113 1318 l 1
 1113 1163 l 1
 710 1163 l 1
 710 199 l 1
 568 199 l 1
EndSplineSet
EndChar

StartChar: degree
Encoding: 111 176 147
Width: 1470
Flags: W
HStem: 778 137<407.791 670.656> 1333 136<409.989 672.813>
VStem: 178 147<994.334 1249.79> 755 147<1000.21 1254.65>
LayerCount: 2
UndoRedoHistory
Layer: 1
Undoes
EndUndoes
Redoes
EndRedoes
EndUndoRedoHistory
Fore
SplineSet
540 915 m 0
 667 915 755 1017 755 1125 c 0
 755 1262 646 1333 540 1333 c 0
 416 1333 325 1235 325 1125 c 0
 325 985 435 915 540 915 c 0
540 778 m 0
 328 778 178 946 178 1126 c 0
 178 1347 368 1469 540 1469 c 0
 754 1469 902 1303 902 1126 c 0
 902 901 712 778 540 778 c 0
EndSplineSet
EndChar

StartChar: cent
Encoding: 98 162 148
Width: 1120
Flags: W
HStem: -15.3782 184.437<500.521 595 728 867.037> 854.907 186.675<493.578 595 728 859.477>
VStem: 126 248<310.422 721.485>
LayerCount: 2
UndoRedoHistory
Layer: 1
Undoes
EndUndoes
Redoes
EndRedoes
EndUndoRedoHistory
Fore
SplineSet
595 -414 m 1
 728 -414 l 1
 728 -15.3781576975 l 1
 812.206298886 -3.38123101866 898.438882251 25.9592548341 981 81 c 1
 908 236 l 1
 849.554729751 198.224398498 786.537382386 177.721088324 728 169.058844221 c 1
 728 854.907445016 l 1
 778.217260087 845.481349268 833.436733086 826.610385789 886 798 c 1
 951 960 l 1
 881.697385552 1005.01097639 803.717069937 1030.62473842 728 1041.58236303 c 1
 728 1366 l 1
 595 1366 l 1
 595 1046.54486825 l 1
 340.726197594 1029.55818738 126 863.300996443 126 519 c 0
 126 165.164296765 336.120035659 -5.83968713041 595 -20.9053028487 c 1
 595 -414 l 1
595 170.312958279 m 1
 477.187486421 194.215367639 374 289.749185739 374 520 c 0
 374 714.629589292 460.0768667 830.037991532 595 856.25272455 c 1
 595 170.312958279 l 1
EndSplineSet
EndChar

StartChar: sterling
Encoding: 99 163 149
Width: 1254
Flags: W
HStem: 0 177<484 1137> 675 145<187 374 624 960> 1272 208<711.697 1016.88>
VStem: 374 250<324.191 675 820 1175.06>
LayerCount: 2
UndoRedoHistory
Layer: 1
Undoes
EndUndoes
Redoes
EndRedoes
EndUndoRedoHistory
Fore
SplineSet
189 0 m 1
 187 142 l 1
 293 204 374 367 374 540 c 2
 374 675 l 1
 187 675 l 1
 187 820 l 1
 374 820 l 1
 374 880 l 2
 374 1237 479 1480 814 1480 c 0
 948 1480 1059 1440 1138 1378 c 1
 1068 1200 l 1
 998 1243 916 1272 843 1272 c 0
 722 1272 622 1194 622 969 c 2
 622 820 l 1
 960 820 l 1
 960 675 l 1
 624 675 l 1
 624 595 l 2
 624 391 587 234 484 177 c 1
 1137 177 l 1
 1137 0 l 1
 189 0 l 1
EndSplineSet
EndChar

StartChar: section
Encoding: 103 167 150
Width: 1272
Flags: W
HStem: 1236 200<794.493 989> 1460 20G<601.5 768.5>
VStem: 218 259<581.272 773.367> 833 256<566.947 745.659>
LayerCount: 2
UndoRedoHistory
Layer: 1
Undoes
EndUndoes
Redoes
EndRedoes
EndUndoRedoHistory
Fore
SplineSet
1061 143 m 0
 1061 -192 609 -249 252 -113 c 1
 250 106 l 1
 554 -2 782 51 814 133 c 0
 850 225 724 256 605 302 c 1
 366 398 218 443 218 657 c 0
 218 797 336 865 446 912 c 1
 339 967 263 1045 263 1183 c 0
 263 1397 487 1480 716 1480 c 0
 821 1480 894 1461 989 1436 c 1
 989 1236 l 1
 815 1307 526 1303 516 1187 c 0
 509 1100 587 1063 655 1037 c 0
 908 941 1089 872 1089 665 c 0
 1089 525 969 453 864 399 c 1
 971 353 1061 278 1061 143 c 0
697 501 m 1
 759 539 833 586 833 660 c 0
 833 771 684 791 606 831 c 1
 548 802 477 758 477 676 c 0
 477 562 591 541 697 501 c 1
EndSplineSet
EndChar

StartChar: bullet
Encoding: 300 8226 151
Width: 1718
Flags: W
HStem: 678 733<505.2 839.326>
VStem: 287 765<883.607 1211.65>
LayerCount: 2
UndoRedoHistory
Layer: 1
Undoes
EndUndoes
Redoes
EndRedoes
EndUndoRedoHistory
Fore
SplineSet
667 678 m 0
 501 678 375 776 317 901 c 0
 297 944 287 992 287 1041 c 0
 287 1215 407 1330 535 1382 c 1
 578 1403 625 1411 672 1411 c 0
 837 1411 962 1312 1020 1189 c 1
 1042 1145 1052 1098 1052 1049 c 0
 1052 935 997 845 933 787 c 1
 868 726 774 678 667 678 c 0
EndSplineSet
EndChar

StartChar: paragraph
Encoding: 116 182 152
Width: 1328
Flags: W
HStem: 1311 146<696.577 916 1068 1190>
VStem: 164 531<913.578 1279.13> 543 152<-139 748> 916 152<-139 1311>
LayerCount: 2
UndoRedoHistory
Layer: 1
Undoes
EndUndoes
Redoes
EndRedoes
EndUndoRedoHistory
Fore
SplineSet
543 -139 m 1xb0
 543 748 l 1xb0
 306 748 164 879 164 1102 c 0xd0
 164 1412 456 1457 736 1457 c 2
 1190 1457 l 1
 1190 1311 l 1
 1068 1311 l 1
 1068 -139 l 1
 916 -139 l 1
 916 1311 l 1
 695 1311 l 1
 695 -139 l 1
 543 -139 l 1xb0
EndSplineSet
EndChar

StartChar: germandbls
Encoding: 157 223 153
Width: 1234
Flags: W
HStem: 0 21G<192 434> 1312 168<512.714 750.16>
VStem: 192 242<0 1228.8>
LayerCount: 2
UndoRedoHistory
Layer: 1
Undoes
EndUndoes
Redoes
EndRedoes
EndUndoRedoHistory
Fore
SplineSet
1181 321 m 0
 1181 -36 737 -130 538 109 c 1
 575 263 l 1
 711 115 939 127 960 287 c 0
 981 452 842 563 607 711 c 0
 554 744 537 850 622 897 c 0
 736 960 823 981 802 1163 c 0
 791 1259 719 1312 636 1312 c 0
 506 1312 434 1220 434 1032 c 2
 434 0 l 1
 192 0 l 1
 192 1044 l 2
 192 1324 389 1480 637 1480 c 0
 894 1480 1034 1343 1044 1164 c 0
 1055 968 958 885 810 820 c 0
 796 814 787 794 812 779 c 0
 1016 656 1181 574 1181 321 c 0
EndSplineSet
EndChar

StartChar: registered
Encoding: 109 174 154
Width: 2036
Flags: W
HStem: -138 138<774.845 1279.96> 680 139<850 1043.09> 1158 141<846 1220.8> 1504 138<772.484 1271.22>
VStem: 154 149<486.905 1018.06> 693 157<221 680 819 1158> 1274 165<868.718 1108.1> 1745 149<479.101 1016.37>
LayerCount: 2
UndoRedoHistory
Layer: 1
Undoes
EndUndoes
Redoes
EndRedoes
EndUndoRedoHistory
Fore
SplineSet
693 221 m 1
 693 1299 l 1
 982 1299 l 2
 1137 1299 1252 1274 1327 1222 c 0
 1402 1170 1439 1095 1439 998 c 0
 1439 810 1312 722 1158 700 c 1
 1239 615 1301 505 1365 391 c 0
 1394 340 1425 285 1459 221 c 1
 1281 221 l 1
 1150 469 l 2
 1106 554 1060 634 995 680 c 1
 850 680 l 1
 850 221 l 1
 693 221 l 1
1028 -138 m 0
 761 -138 561 -22 419 125 c 0
 320 228 236 360 188 518 c 0
 166 593 154 671 154 752 c 0
 154 1035 284 1237 421 1379 c 0
 563 1526 759 1642 1023 1642 c 0
 1290 1642 1487 1524 1628 1377 c 0
 1726 1274 1812 1144 1860 985 c 0
 1882 910 1894 832 1894 751 c 0
 1894 469 1765 267 1628 125 c 1
 1488 -22 1292 -138 1028 -138 c 0
1028 0 m 0
 1254 0 1421 93 1539 217 c 1
 1655 337 1745 510 1745 751 c 0
 1745 985 1653 1166 1538 1286 c 0
 1420 1410 1242 1504 1023 1504 c 0
 804 1504 630 1411 512 1288 c 0
 396 1167 303 987 303 754 c 0
 303 518 396 337 512 217 c 1
 631 92 808 0 1028 0 c 0
847 819 m 1
 980 819 l 2
 1126 819 1274 821 1274 980 c 0
 1274 1157 1141 1158 978 1158 c 2
 846 1158 l 1
 847 819 l 1
EndSplineSet
EndChar

StartChar: copyright
Encoding: 105 169 155
Width: 1820
Flags: W
HStem: -25 105<688.813 1129.93> 249 131<779.824 1142.14> 1080 128<775.478 1126.16> 1371 109<688.813 1129.93>
VStem: 158 121<488.678 955.064> 468 153<535.105 921.292> 1538 124<488.678 955.064>
LayerCount: 2
UndoRedoHistory
Layer: 1
Undoes
EndUndoes
Redoes
EndRedoes
EndUndoRedoHistory
Fore
SplineSet
935 249 m 0
 640 249 468 473 468 729 c 0
 468 1042 676 1208 945 1208 c 0
 1055 1208 1150 1174 1228 1105 c 1
 1198 985 l 1
 1128 1048 1042 1080 939 1080 c 0
 729 1080 621 920 621 733 c 0
 621 504 754 380 965 380 c 0
 1062 380 1136 411 1194 460 c 1
 1231 339 l 1
 1148 279 1050 249 935 249 c 0
909 80 m 0
 1260 80 1538 374 1538 725 c 0
 1538 1077 1260 1371 909 1371 c 0
 557 1371 279 1077 279 725 c 0
 279 374 557 80 909 80 c 0
910 1480 m 0
 1324 1480 1662 1141 1662 727 c 0
 1662 314 1324 -25 910 -25 c 0
 496 -25 158 314 158 727 c 0
 158 1141 496 1480 910 1480 c 0
EndSplineSet
EndChar

StartChar: trademark
Encoding: 308 8482 156
Width: 3165
Flags: W
HStem: 1988 119<133 426 557 832>
VStem: 426 131<1208 1988> 951 129<1208 1906> 1739 143<1208 1907>
LayerCount: 2
UndoRedoHistory
Layer: 1
Undoes
EndUndoes
Redoes
EndRedoes
EndUndoRedoHistory
Fore
SplineSet
951 1208 m 1
 951 2107 l 1
 1153 2107 l 1
 1403 1459 l 1
 1672 2107 l 1
 1882 2107 l 1
 1882 1208 l 1
 1739 1208 l 1
 1739 1907 l 1
 1439 1208 l 1
 1354 1208 l 1
 1080 1906 l 1
 1080 1208 l 1
 951 1208 l 1
426 1208 m 1
 426 1988 l 1
 133 1988 l 1
 133 2107 l 1
 832 2107 l 1
 832 1988 l 1
 557 1988 l 1
 557 1208 l 1
 426 1208 l 1
EndSplineSet
EndChar

StartChar: acute
Encoding: 115 180 157
Width: 1078
Flags: W
HStem: 1106 376
VStem: 300 585
LayerCount: 2
UndoRedoHistory
Layer: 1
Undoes
EndUndoes
Redoes
EndRedoes
EndUndoRedoHistory
Fore
SplineSet
300 1106 m 1
 566 1482 l 1
 885 1482 l 1
 523 1106 l 1
 300 1106 l 1
EndSplineSet
EndChar

StartChar: dieresis
Encoding: 104 168 158
Width: 1296
Flags: W
HStem: 1197 261<304.5 565.5 730.5 991.5>
VStem: 304.5 261<1197 1458> 730.5 261<1197 1458>
AnchorPoint: "top" 368 1152 mark 0
AnchorPoint: "top" 640.5 1086 mark 0
LayerCount: 2
UndoRedoHistory
Layer: 1
Undoes
EndUndoes
Redoes
EndRedoes
EndUndoRedoHistory
Fore
SplineSet
304.5 1197 m 5
 304.5 1458 l 5
 565.5 1458 l 5
 565.5 1197 l 5
 304.5 1197 l 5
730.5 1197 m 5
 730.5 1458 l 5
 991.5 1458 l 5
 991.5 1197 l 5
 730.5 1197 l 5
EndSplineSet
EndChar

StartChar: notequal
Encoding: 317 8800 159
Width: 2318
Flags: W
HStem: 408 142<303 636 841 1412> 882 142<303 858 1060 1411>
LayerCount: 2
UndoRedoHistory
Layer: 1
Undoes
EndUndoes
Redoes
EndRedoes
EndUndoRedoHistory
Fore
SplineSet
630 81 m 1
 498 102 l 1
 636 408 l 1
 303 408 l 1
 293 550 l 1
 702 550 l 1
 858 882 l 1
 303 882 l 1
 292 1024 l 1
 918 1024 l 1
 1062 1346 l 1
 1196 1324 l 1
 1060 1024 l 1
 1411 1024 l 1
 1423 882 l 1
 998 882 l 1
 841 550 l 1
 1412 550 l 1
 1423 408 l 1
 780 408 l 1
 630 81 l 1
EndSplineSet
EndChar

StartChar: AE
Encoding: 132 198 160
Width: 2059
Flags: W
HStem: 0 184<1358 1927> 378 184<599 1069> 648 173<1318 1863> 1262 194<995 1009 1258 1904>
LayerCount: 2
UndoRedoHistory
Layer: 1
Undoes
EndUndoes
Redoes
EndRedoes
EndUndoRedoHistory
Fore
SplineSet
18 0 m 1
 851 1456 l 1
 1904 1456 l 1
 1904 1262 l 1
 1258 1262 l 1
 1296 821 l 1
 1863 821 l 1
 1863 648 l 1
 1318 648 l 1
 1358 184 l 1
 1927 184 l 1
 1927 0 l 1
 1119 0 l 1
 1088 378 l 1
 519 378 l 1
 306 0 l 1
 18 0 l 1
599 562 m 1
 1069 562 l 1
 1009 1262 l 1
 995 1262 l 1
 599 562 l 1
EndSplineSet
EndChar

StartChar: Oslash
Encoding: 150 216 161
Width: 1582
Flags: W
HStem: -24 208<646.742 971.835> 1272 208<615.63 980.127>
VStem: 116 266<469.212 982.397> 1210 266<471.605 979.275>
LayerCount: 2
UndoRedoHistory
Layer: 1
Undoes
EndUndoes
Redoes
EndRedoes
EndUndoRedoHistory
Fore
SplineSet
453 -291 m 1
 311 -239 l 1
 1148 1684 l 1
 1295 1633 l 1
 453 -291 l 1
793 184 m 0
 1041 184 1211 400 1210 724 c 1
 1210 1054 1041 1272 793 1272 c 0
 545 1272 382 1054 382 724 c 0
 382 400 545 184 793 184 c 0
793 -24 m 0
 397 -24 116 276 116 726 c 0
 116 1172 397 1480 793 1480 c 0
 1193 1480 1476 1172 1476 726 c 0
 1476 276 1193 -24 793 -24 c 0
EndSplineSet
EndChar

StartChar: infinity
Encoding: 314 8734 162
Width: 2901
Flags: W
HStem: 415 141<449.969 721.708 1286.65 1566.56> 1112 135<435.522 716.902 1286.07 1559.69>
VStem: 179 153<676.558 1000.15> 1664 163<663.593 1008.09>
LayerCount: 2
UndoRedoHistory
Layer: 1
Undoes
EndUndoes
Redoes
EndRedoes
EndUndoRedoHistory
Fore
SplineSet
580 415 m 0
 394 415 268 536 210 686 c 0
 189 739 179 798 179 857 c 0
 179 978 238 1071 306 1133 c 1
 371 1195 464 1247 575 1247 c 0
 728 1247 831 1163 911 1073 c 0
 943 1037 974 996 1005 951 c 1
 1084 1065 1172 1177 1305 1226 c 0
 1343 1241 1385 1247 1431 1247 c 0
 1613 1247 1740 1147 1798 1001 c 0
 1818 951 1827 897 1827 838 c 0
 1827 638 1710 504 1574 446 c 0
 1527 426 1479 415 1428 415 c 0
 1349 415 1277 440 1210 489 c 0
 1143 538 1074 612 1004 711 c 1
 925 597 832 487 701 437 c 0
 662 423 622 415 580 415 c 0
583 556 m 0
 662 556 722 594 771 636 c 0
 831 688 884 759 931 830 c 1
 865 936 790 1041 677 1090 c 0
 645 1104 609 1112 572 1112 c 0
 453 1112 381 1038 349 941 c 0
 338 907 332 871 332 833 c 0
 332 707 401 620 481 579 c 0
 512 564 544 556 583 556 c 0
1431 556 m 0
 1591 556 1664 685 1664 864 c 0
 1664 980 1597 1057 1521 1092 c 0
 1491 1105 1460 1112 1425 1112 c 0
 1345 1112 1282 1070 1232 1026 c 0
 1172 974 1120 904 1077 833 c 1
 1133 752 1184 682 1253 626 c 0
 1302 585 1353 556 1431 556 c 0
EndSplineSet
EndChar

StartChar: plusminus
Encoding: 112 177 163
Width: 1612
Flags: W
HStem: 0 163<224 1388> 759 162<224 718 886 1383>
VStem: 718 163<322 759 921 1359>
LayerCount: 2
UndoRedoHistory
Layer: 1
Undoes
EndUndoes
Redoes
EndRedoes
EndUndoRedoHistory
Fore
SplineSet
720 322 m 1
 720 759 l 1
 224 759 l 1
 224 921 l 1
 718 921 l 1
 718 1359 l 1
 881 1359 l 1
 881 921 l 1
 1383 921 l 1
 1383 759 l 1
 886 759 l 1
 886 322 l 1
 720 322 l 1
224 0 m 1
 224 163 l 1
 1388 163 l 1
 1388 0 l 1
 224 0 l 1
EndSplineSet
EndChar

StartChar: lessequal
Encoding: 318 8804 164
Width: 2320
Flags: W
HStem: 15 144<294 1416>
LayerCount: 2
UndoRedoHistory
Layer: 1
Undoes
EndUndoes
Redoes
EndRedoes
EndUndoRedoHistory
Fore
SplineSet
1382 259 m 1
 336 787 l 1
 336 882 l 1
 1382 1437 l 1
 1382 1272 l 1
 541 838 l 1
 1382 424 l 1
 1382 259 l 1
294 15 m 1
 294 159 l 1
 1416 159 l 1
 1416 15 l 1
 294 15 l 1
EndSplineSet
EndChar

StartChar: greaterequal
Encoding: 319 8805 165
Width: 2318
Flags: W
HStem: 15 144<294 1412>
LayerCount: 2
UndoRedoHistory
Layer: 1
Undoes
EndUndoes
Redoes
EndRedoes
EndUndoRedoHistory
Fore
SplineSet
294 15 m 1
 294 159 l 1
 1412 159 l 1
 1412 15 l 1
 294 15 l 1
334 1439 m 1
 1389 883 l 1
 1389 789 l 1
 330 261 l 1
 330 427 l 1
 1180 835 l 1
 334 1275 l 1
 334 1439 l 1
EndSplineSet
EndChar

StartChar: yen
Encoding: 101 165 166
Width: 1256
Flags: W
HStem: 0 21G<502 752> 283 139<119 528 717 1124> 608 142<112 528 717 1120> 1436 20G<-7 275.246 976.692 1246>
VStem: 502 250<0 588>
LayerCount: 2
UndoRedoHistory
Layer: 1
Undoes
EndUndoes
Redoes
EndRedoes
EndUndoRedoHistory
Fore
SplineSet
1124 283 m 1
 119 283 l 1
 119 422 l 1
 528 422 l 1
 528 608 l 1
 112 608 l 1
 112 750 l 1
 1120 750 l 1
 1120 608 l 1
 717 608 l 1
 717 422 l 1
 1124 422 l 1
 1124 283 l 1
502 0 m 1
 502 588 l 1
 -7 1456 l 1
 264 1456 l 1
 625 814 l 1
 988 1456 l 1
 1246 1456 l 1
 752 590 l 1
 752 0 l 1
 502 0 l 1
EndSplineSet
EndChar

StartChar: partialdiff
Encoding: 309 8706 167
Width: 1993
Flags: W
HStem: -42 158<478.125 755.488> 1006 157<580.657 877.691> 1629 157<504.815 843.649>
VStem: 156 199<256.875 721.394> 1049 201<968 1354.9>
LayerCount: 2
UndoRedoHistory
Layer: 1
Undoes
EndUndoes
Redoes
EndRedoes
EndUndoRedoHistory
Fore
SplineSet
610 -42 m 0
 390 -42 246 87 186 273 c 0
 166 337 156 405 156 479 c 0
 156 786 309 1008 501 1109 c 0
 566 1144 634 1163 709 1163 c 0
 867 1163 970 1075 1048 968 c 1
 1048 991 1049 1031 1049 1056 c 0
 1049 1305 980 1504 836 1590 c 0
 791 1616 743 1629 686 1629 c 0
 566 1629 470 1572 396 1517 c 1
 385 1679 l 1
 464 1738 582 1786 711 1786 c 0
 992 1786 1143 1598 1210 1343 c 0
 1237 1242 1250 1124 1250 986 c 0
 1250 703 1186 464 1082 282 c 0
 1011 157 921 57 800 -1 c 0
 743 -29 679 -42 610 -42 c 0
612 116 m 0
 742 116 830 209 888 304 c 0
 958 419 1008 581 1028 755 c 1
 991 860 926 945 834 986 c 0
 803 1000 770 1006 733 1006 c 0
 611 1006 521 931 463 848 c 0
 401 759 355 628 355 476 c 0
 355 315 408 195 506 142 c 0
 537 125 572 116 612 116 c 0
EndSplineSet
EndChar

StartChar: summation
Encoding: 311 8721 168
Width: 2149
Flags: W
HStem: -580 174<385 1391> 1311 166<418 1338>
LayerCount: 2
UndoRedoHistory
Layer: 1
Undoes
EndUndoes
Redoes
EndRedoes
EndUndoRedoHistory
Fore
SplineSet
111 -580 m 1
 111 -474 l 1
 812 455 l 1
 136 1367 l 1
 136 1477 l 1
 1338 1477 l 1
 1338 1311 l 1
 418 1311 l 1
 1026 465 l 1
 385 -406 l 1
 1391 -406 l 1
 1391 -580 l 1
 111 -580 l 1
EndSplineSet
EndChar

StartChar: product
Encoding: 310 8719 169
Width: 2673
Flags: W
HStem: 1307 170<222 369 567 1334 1536 1668>
VStem: 369 198<-580 1307> 1334 202<-580 1307>
LayerCount: 2
UndoRedoHistory
Layer: 1
Undoes
EndUndoes
Redoes
EndRedoes
EndUndoRedoHistory
Fore
SplineSet
369 -580 m 1
 369 1307 l 1
 222 1307 l 1
 204 1477 l 1
 1687 1477 l 1
 1668 1307 l 1
 1536 1307 l 1
 1536 -580 l 1
 1334 -580 l 1
 1334 1307 l 1
 567 1307 l 1
 567 -580 l 1
 369 -580 l 1
EndSplineSet
EndChar

StartChar: pi
Encoding: 289 960 170
Width: 2201
Flags: W
HStem: -14 182<1163.82 1345.71> 1060 157<120.36 379 558.854 955 1129 1369>
VStem: 222 227<-2.86695 91.7618> 955 185<190.788 1060>
LayerCount: 2
UndoRedoHistory
Layer: 1
Undoes
EndUndoes
Redoes
EndRedoes
EndUndoRedoHistory
Fore
SplineSet
1201 -14 m 0
 998 -14 955 117 955 322 c 2
 955 1060 l 1
 561 1060 l 1
 538 722 519 389 449 99 c 0
 438 55 426 20 412 -4 c 1
 222 -4 l 1
 293 119 320 304 341 478 c 0
 364 661 374 862 379 1060 c 1
 247 1057 150 1037 60 989 c 1
 40 1143 l 1
 133 1214 287 1217 444 1217 c 2
 1369 1217 l 1
 1369 1060 l 1
 1129 1060 l 1
 1140 334 l 1
 1140 238 1158 168 1256 168 c 0
 1285 168 1316 173 1350 183 c 1
 1348 148 l 2
 1347 137 1347 125 1347 113 c 0
 1347 72 1350 37 1362 3 c 1
 1309 -6 1256 -14 1201 -14 c 0
EndSplineSet
EndChar

StartChar: integral
Encoding: 315 8747 171
Width: 1219
Flags: W
HStem: -703 159<229.247 484.527> -546 20G<225.395 240> 1522 158<770.533 1026.8>
VStem: 536 181<-488.514 1466.26>
LayerCount: 2
UndoRedoHistory
Layer: 1
Undoes
EndUndoes
Redoes
EndRedoes
EndUndoRedoHistory
Fore
SplineSet
387 -703 m 0xb0
 318 -703 284 -693 228 -678 c 1
 225 -526 l 1x70
 255 -538 310 -544 354 -544 c 0
 510 -544 536 -449 536 -289 c 2
 536 1239 l 2
 536 1500 620 1680 868 1680 c 0
 932 1680 976 1668 1028 1656 c 1
 1031 1505 l 1
 1000 1517 945 1522 902 1522 c 0
 746 1522 717 1428 717 1268 c 2
 717 -261 l 2
 717 -522 636 -703 387 -703 c 0xb0
EndSplineSet
EndChar

StartChar: ordfeminine
Encoding: 106 170 172
Width: 1013
Flags: W
HStem: 636 121<351.21 603.315> 1342 126<360.387 652.055>
VStem: 163 160<784.768 973.035> 685 156<657 743 846.108 1037 1150.54 1310.22>
LayerCount: 2
UndoRedoHistory
Layer: 1
Undoes
EndUndoes
Redoes
EndRedoes
EndUndoRedoHistory
Fore
SplineSet
453 636 m 0
 326 636 229 690 185 779 c 0
 170 809 163 842 163 879 c 0
 163 1039 308 1112 445 1134 c 0
 524 1146 606 1144 685 1156 c 1
 685 1166 l 2
 685 1295 644 1342 528 1342 c 0
 423 1342 347 1308 295 1231 c 1
 216 1319 l 1
 276 1420 393 1468 534 1468 c 0
 711 1468 841 1378 841 1184 c 1
 839 807 l 2
 839 755 841 728 847 657 c 1
 693 657 l 1
 686 743 l 1
 639 679 559 636 453 636 c 0
475 757 m 0
 613 757 678 864 685 1008 c 1
 685 1037 l 1
 566 1011 323 1044 323 881 c 0
 323 790 391 757 475 757 c 0
EndSplineSet
EndChar

StartChar: ordmasculine
Encoding: 120 186 173
Width: 1140
Flags: W
HStem: 647 126<431.923 708.859> 1354 126<431.971 705.87>
VStem: 164 164<888.266 1240.94> 814 162<885.957 1237.38>
LayerCount: 2
UndoRedoHistory
Layer: 1
Undoes
EndUndoes
Redoes
EndRedoes
EndUndoRedoHistory
Fore
SplineSet
572 647 m 0
 325 647 164 805 164 1066 c 0
 164 1328 325 1480 572 1480 c 0
 824 1480 976 1295 976 1062 c 0
 976 798 813 647 572 647 c 0
572 773 m 0
 721 773 814 896 814 1061 c 0
 814 1231 722 1354 569 1354 c 0
 418 1354 328 1231 328 1065 c 0
 328 894 416 773 572 773 c 0
EndSplineSet
EndChar

StartChar: ae
Encoding: 164 230 174
Width: 1748
Flags: W
HStem: -22 186<1157.86 1510.15> -22 164<363.343 633.33> 418 145<412.626 770 1015 1225.92> 862 189<350.104 688.597 1134.05 1375.22>
VStem: 130 207<171.679 356.752> 770 237<571 714.402> 1393 234<662.389 842.648>
LayerCount: 2
UndoRedoHistory
Layer: 1
Undoes
EndUndoes
Redoes
EndRedoes
EndUndoRedoHistory
Fore
SplineSet
1684 100 m 1xbe
 1573 3 1420 -22 1294 -22 c 0xbe
 1126 -22 979 42 884 160 c 1
 775 24 622 -22 468 -22 c 0x7e
 269 -22 130 75 130 263 c 0
 130 549 476 563 770 563 c 1
 770 626 l 2
 770 799 662 862 539 862 c 0
 439 862 331 821 262 763 c 1
 172 924 l 1
 282 1004 426 1051 561 1051 c 0
 710 1051 847 992 909 857 c 1
 999 983 1129 1048 1279 1048 c 0
 1498 1048 1627 925 1627 763 c 0
 1627 759 1627 754 1627 750 c 0
 1619 566 1441 465 1015 429 c 1
 1033 248 1184 164 1325 164 c 0
 1414 164 1510 196 1596 259 c 1
 1684 100 l 1xbe
772 418 m 1
 474 411 337 396 337 260 c 0
 337 180 402 142 482 142 c 0x7e
 608 142 772 238 772 418 c 1
1393 758 m 0
 1393 823 1346 867 1268 867 c 0
 1115 867 1015 698 1007 571 c 1
 1299 605 1393 644 1393 758 c 0
EndSplineSet
EndChar

StartChar: oslash
Encoding: 182 248 175
Width: 2136
Flags: W
HStem: -22 186<529.361 756.284> 862 186<479.245 705.576>
VStem: 122 248<291.588 739.223> 868 248<292.01 733.795>
LayerCount: 2
UndoRedoHistory
Layer: 1
Undoes
EndUndoes
Redoes
EndRedoes
EndUndoRedoHistory
Fore
SplineSet
397 -191 m 1
 292 -153 l 1
 840 1233 l 1
 961 1196 l 1
 397 -191 l 1
619 164 m 0
 789 164 868 299 868 512 c 0
 868 725 788 862 617 862 c 0
 446 862 370 725 370 512 c 0
 370 299 447 164 619 164 c 0
617 -22 m 0
 306 -22 122 195 122 512 c 0
 122 830 305 1048 616 1048 c 0
 931 1048 1116 832 1116 513 c 0
 1116 196 933 -22 617 -22 c 0
EndSplineSet
EndChar

StartChar: questiondown
Encoding: 125 191 176
Width: 957
Flags: W
HStem: -276 228<448.773 791.948> -21 20G<777 816.938> 898 318<494.5 731.5>
VStem: 132 277<-7.61365 198.42> 448 330<945.046 1168.43>
LayerCount: 2
UndoRedoHistory
Layer: 1
Undoes
EndUndoes
Redoes
EndRedoes
EndUndoRedoHistory
Fore
SplineSet
613 1216 m 0
 709 1216 778 1150 778 1055 c 0
 778 963 709 898 613 898 c 0
 517 898 448 963 448 1058 c 0
 448 1152 517 1216 613 1216 c 0
673 781 m 1
 673 317 409 241 409 95 c 0
 409 -8 489 -48 583 -48 c 0
 649 -48 740 -29 814 -1 c 1
 845 -212 l 1
 742 -255 629 -276 529 -276 c 0
 316 -276 132 -173 132 67 c 0
 132 423 502 428 559 781 c 1
 673 781 l 1
EndSplineSet
EndChar

StartChar: exclamdown
Encoding: 97 161 177
Width: 782
Flags: W
HStem: 890 318<272.5 509.5>
VStem: 226 330<937.046 1160.43> 334 129<551.895 698>
LayerCount: 2
UndoRedoHistory
Layer: 1
Undoes
EndUndoes
Redoes
EndRedoes
EndUndoRedoHistory
Fore
SplineSet
391 1208 m 0xc0
 487 1208 556 1142 556 1047 c 0
 556 955 487 890 391 890 c 0
 295 890 226 955 226 1050 c 0
 226 1144 295 1208 391 1208 c 0xc0
463 698 m 1xa0
 554 -260 l 1
 240 -260 l 1
 334 698 l 1
 463 698 l 1xa0
EndSplineSet
EndChar

StartChar: logicalnot
Encoding: 108 172 178
Width: 1774
Flags: W
HStem: 913 164<283 1262>
VStem: 1262 176<419 913>
LayerCount: 2
UndoRedoHistory
Layer: 1
Undoes
EndUndoes
Redoes
EndRedoes
EndUndoRedoHistory
Fore
SplineSet
1262 419 m 1
 1262 913 l 1
 283 913 l 1
 283 1077 l 1
 1438 1077 l 1
 1438 419 l 1
 1262 419 l 1
EndSplineSet
EndChar

StartChar: radical
Encoding: 313 8730 179
Width: 2242
Flags: W
VStem: 1251 152<1727.07 1784>
LayerCount: 2
UndoRedoHistory
Layer: 1
Undoes
EndUndoes
Redoes
EndRedoes
EndUndoRedoHistory
Fore
SplineSet
742 -269 m 1
 388 721 l 1
 186 688 l 1
 163 819 l 1
 500 879 l 1
 742 162 l 1
 804 -41 l 1
 846 165 l 1
 1251 1784 l 1
 1403 1784 l 1
 886 -269 l 1
 742 -269 l 1
EndSplineSet
EndChar

StartChar: florin
Encoding: 244 402 180
Width: 2044
Flags: W
HStem: -585 163<151.878 355.43> 748 164<448 602 808 1018> 1324 167<905.514 1167.91>
LayerCount: 2
UndoRedoHistory
Layer: 1
Undoes
EndUndoes
Redoes
EndRedoes
EndUndoRedoHistory
Fore
SplineSet
260 -585 m 0
 224 -585 183 -579 139 -566 c 1
 153 -404 l 1
 185 -417 216 -422 245 -422 c 0
 376 -422 416 -294 439 -187 c 1
 506 110 548 437 602 748 c 1
 437 748 l 1
 448 912 l 1
 627 912 l 1
 651 1090 l 1
 679 1318 767 1491 1010 1491 c 0
 1068 1491 1125 1482 1177 1469 c 1
 1168 1299 l 1
 1129 1314 1087 1324 1041 1324 c 0
 908 1324 866 1257 846 1143 c 1
 808 912 l 1
 1029 912 l 1
 1018 748 l 1
 784 748 l 1
 649 -54 l 1
 613 -255 571 -451 436 -541 c 0
 394 -570 332 -585 260 -585 c 0
EndSplineSet
EndChar

StartChar: approxequal
Encoding: 316 8776 181
Width: 2296
Flags: W
HStem: 461 138<966.372 1192.01> 654 141<493.333 737.745> 898 138<954.243 1189.75> 1091 139<490.462 735.365>
VStem: 280 134<490.208 569.212 927.252 1007.42> 1272 129<693.162 765.667 1129.85 1202.61>
LayerCount: 2
UndoRedoHistory
Layer: 1
Undoes
EndUndoes
Redoes
EndRedoes
EndUndoRedoHistory
Fore
SplineSet
414 460 m 1
 280 493 l 1
 321 662 429 795 609 795 c 0
 712 795 803 741 874 697 c 1
 915 673 953 651 989 630 c 1
 1025 611 1057 599 1088 599 c 0
 1194 599 1240 697 1272 795 c 1
 1401 762 l 1
 1362 593 1266 461 1082 461 c 0
 998 461 937 492 879 525 c 0
 827 555 752 605 698 631 c 0
 666 646 636 654 606 654 c 0
 492 654 441 563 414 460 c 1
412 898 m 1
 277 930 l 1
 316 1103 425 1230 606 1230 c 0
 762 1230 879 1112 993 1060 c 0
 1027 1045 1057 1036 1086 1036 c 0
 1193 1036 1238 1131 1270 1232 c 1
 1399 1199 l 1
 1363 1029 1262 898 1079 898 c 0
 994 898 936 928 876 962 c 0
 822 992 749 1042 694 1069 c 0
 663 1084 633 1091 602 1091 c 0
 490 1091 440 1000 412 898 c 1
EndSplineSet
EndChar

StartChar: Delta
Encoding: 286 916 182
Width: 2324
Flags: W
HStem: 0 190<350 1247>
LayerCount: 2
UndoRedoHistory
Layer: 1
Undoes
EndUndoes
Redoes
EndRedoes
EndUndoRedoHistory
Fore
SplineSet
81 0 m 1
 81 94 l 1
 692 1678 l 1
 906 1678 l 1
 1517 94 l 1
 1517 0 l 1
 81 0 l 1
350 190 m 1
 1247 190 l 1
 833 1305 l 1
 793 1430 l 1
 756 1305 l 1
 350 190 l 1
EndSplineSet
EndChar

StartChar: guillemotleft
Encoding: 107 171 183
Width: 1219
Flags: W
LayerCount: 2
UndoRedoHistory
Layer: 1
Undoes
EndUndoes
Redoes
EndRedoes
EndUndoRedoHistory
Fore
SplineSet
499 301 m 1
 190 735 l 1
 505 1174 l 1
 675 1174 l 1
 390 735 l 1
 665 301 l 1
 499 301 l 1
896 301 m 1
 607 735 l 1
 902 1174 l 1
 1089 1174 l 1
 786 735 l 1
 1081 301 l 1
 896 301 l 1
EndSplineSet
EndChar

StartChar: guillemotright
Encoding: 121 187 184
Width: 1249
Flags: W
LayerCount: 2
UndoRedoHistory
Layer: 1
Undoes
EndUndoes
Redoes
EndRedoes
EndUndoRedoHistory
Fore
SplineSet
748 1174 m 1
 1059 737 l 1
 743 301 l 1
 575 301 l 1
 857 737 l 1
 583 1174 l 1
 748 1174 l 1
323 1174 m 1
 615 737 l 1
 318 301 l 1
 130 301 l 1
 435 737 l 1
 137 1174 l 1
 323 1174 l 1
EndSplineSet
EndChar

StartChar: ellipsis
Encoding: 301 8230 185
Width: 2772
Flags: W
HStem: -20 247<290 544 887 1126 1468 1723>
VStem: 290 254<-20 227> 887 239<-20 227> 1468 255<-20 227>
LayerCount: 2
UndoRedoHistory
Layer: 1
Undoes
EndUndoes
Redoes
EndRedoes
EndUndoRedoHistory
Fore
SplineSet
290 -20 m 1
 290 227 l 1
 544 227 l 1
 544 -20 l 1
 290 -20 l 1
887 -20 m 1
 887 227 l 1
 1126 227 l 1
 1126 -20 l 1
 887 -20 l 1
1468 -20 m 1
 1468 227 l 1
 1723 227 l 1
 1723 -20 l 1
 1468 -20 l 1
EndSplineSet
EndChar

StartChar: OE
Encoding: 226 338 189
Width: 3537
Flags: W
HStem: -40 173<772.886 1180.39> -14 174<1513 2237> 776 173<1513 2158> 1522 174<1513 2203> 1554 174<775.17 1200>
VStem: 210 216<529.728 1132.12> 1331 182<252.167 776 949 1453.95>
LayerCount: 2
UndoRedoHistory
Layer: 1
Undoes
EndUndoes
Redoes
EndRedoes
EndUndoRedoHistory
Fore
SplineSet
990 -40 m 0xa6
 615 -40 377 167 268 477 c 0
 229 586 210 707 210 843 c 0
 210 1258 405 1536 674 1661 c 0
 769 1706 877 1728 997 1728 c 0xae
 1136 1728 1244 1676 1331 1608 c 1
 1331 1696 l 1
 2203 1696 l 1
 2203 1522 l 1
 1513 1522 l 1
 1513 949 l 1
 2158 949 l 1
 2158 776 l 1
 1513 776 l 1
 1513 160 l 1
 2237 160 l 1
 2237 -14 l 1
 1331 -14 l 1x76
 1331 110 l 1
 1245 24 1139 -40 990 -40 c 0xa6
988 133 m 0
 1142 133 1251 205 1331 298 c 1
 1331 1418 l 1
 1247 1499 1141 1554 990 1554 c 0
 795 1554 659 1461 570 1338 c 0
 483 1218 426 1044 426 838 c 0
 426 518 544 291 744 188 c 0
 814 152 896 133 988 133 c 0
EndSplineSet
EndChar

StartChar: oe
Encoding: 227 339 190
Width: 3363
Flags: W
HStem: -49 161<574.28 913.481 1475.98 1847.55> 536 162<1293 1910> 1060 160<575.122 919.095 1463.73 1776.07>
VStem: 172 204<337.097 820.465> 1096 197<328.57 536 698 845.476> 1910 203<698 891.759>
LayerCount: 2
UndoRedoHistory
Layer: 1
Undoes
EndUndoes
Redoes
EndRedoes
EndUndoRedoHistory
Fore
SplineSet
741 -49 m 0
 470 -49 293 112 213 335 c 0
 186 412 172 494 172 581 c 0
 172 877 319 1079 514 1170 c 1
 584 1204 664 1220 752 1220 c 0
 975 1220 1104 1116 1192 948 c 1
 1272 1115 1402 1220 1615 1220 c 0
 1946 1220 2113 964 2113 600 c 2
 2113 538 l 1
 1293 536 l 1
 1293 513 l 1
 1298 332 1373 201 1501 142 c 0
 1546 122 1597 112 1655 112 c 0
 1835 112 1964 209 2038 327 c 1
 2141 225 l 1
 2048 57 1884 -49 1642 -49 c 0
 1411 -49 1257 57 1186 229 c 1
 1115 51 965 -49 741 -49 c 0
752 112 m 0
 991 112 1096 321 1096 584 c 0
 1096 858 991 1060 743 1060 c 0
 553 1060 443 925 399 762 c 0
 383 704 376 643 376 579 c 0
 376 368 453 219 584 150 c 0
 631 125 688 112 752 112 c 0
1293 698 m 1
 1910 698 l 1
 1910 915 1817 1060 1621 1060 c 0
 1467 1060 1367 958 1321 835 c 1
 1306 791 1297 745 1293 698 c 1
EndSplineSet
EndChar

StartChar: endash
Encoding: 290 8211 191
Width: 1842
Flags: W
HStem: 861 161<0 1202>
LayerCount: 2
UndoRedoHistory
Layer: 1
Undoes
EndUndoes
Redoes
EndRedoes
EndUndoRedoHistory
Fore
SplineSet
0 861 m 1
 0 1022 l 1
 1202 1022 l 1
 1202 861 l 1
 0 861 l 1
EndSplineSet
EndChar

StartChar: emdash
Encoding: 291 8212 192
Width: 3633
Flags: W
HStem: 861 161<5 2345>
LayerCount: 2
UndoRedoHistory
Layer: 1
Undoes
EndUndoes
Redoes
EndRedoes
EndUndoRedoHistory
Fore
SplineSet
5 861 m 1
 5 1022 l 1
 2345 1022 l 1
 2345 861 l 1
 5 861 l 1
EndSplineSet
EndChar

StartChar: quotedblleft
Encoding: 295 8220 193
Width: 1787
Flags: W
HStem: 963 517<947 980 1332 1366>
LayerCount: 2
UndoRedoHistory
Layer: 1
Undoes
EndUndoes
Redoes
EndRedoes
EndUndoRedoHistory
Fore
SplineSet
382 963 m 1
 562 1480 l 1
 709 1480 l 1
 595 963 l 1
 382 963 l 1
775 963 m 1
 947 1480 l 1
 1103 1480 l 1
 981 963 l 1
 775 963 l 1
EndSplineSet
EndChar

StartChar: quotedblright
Encoding: 296 8221 194
Width: 1789
Flags: W
HStem: 937 517<960 994 1323 1356>
LayerCount: 2
UndoRedoHistory
Layer: 1
Undoes
EndUndoes
Redoes
EndRedoes
EndUndoRedoHistory
Fore
SplineSet
475 937 m 1
 597 1454 l 1
 803 1454 l 1
 631 937 l 1
 475 937 l 1
845 937 m 1
 960 1454 l 1
 1173 1454 l 1
 993 937 l 1
 845 937 l 1
EndSplineSet
EndChar

StartChar: quoteleft
Encoding: 292 8216 195
Width: 984
Flags: W
HStem: 939 517<420 453>
VStem: 239 336
LayerCount: 2
UndoRedoHistory
Layer: 1
Undoes
EndUndoes
Redoes
EndRedoes
EndUndoRedoHistory
Fore
SplineSet
575 1456 m 1
 453 939 l 1
 239 939 l 1
 420 1456 l 1
 575 1456 l 1
EndSplineSet
EndChar

StartChar: quoteright
Encoding: 293 8217 196
Width: 984
Flags: W
HStem: 939 517<380 412>
VStem: 257 335
LayerCount: 2
UndoRedoHistory
Layer: 1
Undoes
EndUndoes
Redoes
EndRedoes
EndUndoRedoHistory
Fore
SplineSet
257 939 m 1
 380 1456 l 1
 592 1456 l 1
 412 939 l 1
 257 939 l 1
EndSplineSet
EndChar

StartChar: divide
Encoding: 181 247 197
Width: 2504
Flags: W
HStem: 37 247<830 1059> 581 164<359 1518> 1037 247<830 1059>
VStem: 830 229<37 284 1037 1284>
LayerCount: 2
UndoRedoHistory
Layer: 1
Undoes
EndUndoes
Redoes
EndRedoes
EndUndoRedoHistory
Fore
SplineSet
830 1037 m 1
 830 1284 l 1
 1059 1284 l 1
 1059 1037 l 1
 830 1037 l 1
359 581 m 1
 359 745 l 1
 1518 745 l 1
 1518 581 l 1
 359 581 l 1
830 37 m 1
 830 284 l 1
 1059 284 l 1
 1059 37 l 1
 830 37 l 1
EndSplineSet
EndChar

StartChar: lozenge
Encoding: 320 9674 198
Width: 2138
Flags: W
LayerCount: 2
UndoRedoHistory
Layer: 1
Undoes
EndUndoes
Redoes
EndRedoes
EndUndoRedoHistory
Fore
SplineSet
764 89 m 1
 887 335 1022 567 1157 808 c 1
 1026 1049 895 1284 775 1528 c 1
 652 1281 517 1050 382 811 c 1
 513 570 642 333 764 89 c 1
708 -79 m 1
 207 808 l 1
 716 1700 l 1
 829 1700 l 1
 1334 809 l 1
 820 -79 l 1
 708 -79 l 1
EndSplineSet
EndChar

StartChar: fraction
Encoding: 305 8260 201
Width: 584
Flags: W
HStem: 0 21G<-290.5 -100.188>
LayerCount: 2
UndoRedoHistory
Layer: 1
Undoes
EndUndoes
Redoes
EndRedoes
EndUndoRedoHistory
Fore
SplineSet
-290.5 0 m 1
 699.5 1484.40039062 l 1
 874.5 1484.40039062 l 1
 -113.5 0 l 1
 -290.5 0 l 1
EndSplineSet
EndChar

StartChar: currency
Encoding: 100 164 202
Width: 1373
Flags: W
HStem: 456 90<521.483 846.662> 1227 98<522.336 842.023>
VStem: 258 105<709.969 1063.73> 1000 108<706.542 1061.1>
LayerCount: 2
UndoRedoHistory
Layer: 1
Undoes
EndUndoes
Redoes
EndRedoes
EndUndoRedoHistory
Fore
SplineSet
1152 361 m 1
 959 550 l 1
 886 479 789 456 683 456 c 0
 585 456 493 475 421 540 c 1
 238 343 l 1
 196 387 l 1
 381 581 l 1
 306 662 258 772 258 891 c 0
 258 1000 301 1101 368 1180 c 1
 178 1365 l 1
 223 1410 l 1
 409 1226 l 1
 486 1302 587 1328 694 1325 c 0
 792 1322 881 1301 951 1236 c 1
 1130 1429 l 1
 1178 1384 l 1
 992 1191 l 1
 1066 1108 1111 998 1108 879 c 0
 1105 769 1066 670 999 593 c 1
 1195 403 l 1
 1152 361 l 1
681 546 m 0
 861 546 995 680 1000 879 c 0
 1004 1077 869 1223 690 1227 c 0
 510 1232 363 1086 363 888 c 0
 363 688 502 546 681 546 c 0
EndSplineSet
EndChar

StartChar: guilsinglleft
Encoding: 303 8249 203
Width: 1140
Flags: W
VStem: 195 508
LayerCount: 2
UndoRedoHistory
Layer: 1
Undoes
EndUndoes
Redoes
EndRedoes
EndUndoRedoHistory
Fore
SplineSet
511 301 m 1
 195 735 l 1
 517 1174 l 1
 703 1174 l 1
 394 735 l 1
 694 301 l 1
 511 301 l 1
EndSplineSet
EndChar

StartChar: guilsinglright
Encoding: 304 8250 204
Width: 1140
Flags: W
VStem: 191 510
LayerCount: 2
UndoRedoHistory
Layer: 1
Undoes
EndUndoes
Redoes
EndRedoes
EndUndoRedoHistory
Fore
SplineSet
383 1174 m 1
 701 737 l 1
 376 301 l 1
 191 301 l 1
 499 737 l 1
 201 1174 l 1
 383 1174 l 1
EndSplineSet
EndChar

StartChar: daggerdbl
Encoding: 299 8225 205
Width: 1776
Flags: W
HStem: 577 149<183 571 716 1104> 1220 156<190 571 723 1112>
VStem: 571 145<457.25 577 726 1220 1376 1494.88>
LayerCount: 2
UndoRedoHistory
Layer: 1
Undoes
EndUndoes
Redoes
EndRedoes
EndUndoRedoHistory
Fore
SplineSet
551 199 m 1
 571 577 l 1
 183 577 l 1
 183 726 l 1
 571 726 l 1
 571 1220 l 1
 190 1220 l 1
 190 1376 l 1
 579 1376 l 1
 550 1770 l 1
 745 1770 l 1
 723 1376 l 1
 1112 1376 l 1
 1112 1220 l 1
 716 1220 l 1
 716 726 l 1
 1104 726 l 1
 1104 577 l 1
 716 577 l 1
 740 199 l 1
 551 199 l 1
EndSplineSet
EndChar

StartChar: periodcentered
Encoding: 117 183 206
Width: 791
Flags: W
HStem: 1025 247<268 523>
VStem: 268 255<1025 1272>
LayerCount: 2
UndoRedoHistory
Layer: 1
Undoes
EndUndoes
Redoes
EndRedoes
EndUndoRedoHistory
Fore
SplineSet
268 1025 m 1
 268 1272 l 1
 523 1272 l 1
 523 1025 l 1
 268 1025 l 1
EndSplineSet
EndChar

StartChar: quotesinglbase
Encoding: 294 8218 207
Width: 984
Flags: W
HStem: -419 515<355 386>
VStem: 230 337
LayerCount: 2
UndoRedoHistory
Layer: 1
Undoes
EndUndoes
Redoes
EndRedoes
EndUndoRedoHistory
Fore
SplineSet
230 -419 m 1
 355 96 l 1
 567 96 l 1
 386 -419 l 1
 230 -419 l 1
EndSplineSet
EndChar

StartChar: quotedblbase
Encoding: 297 8222 208
Width: 1786
Flags: W
HStem: -419 515<841 875 1235 1269>
LayerCount: 2
UndoRedoHistory
Layer: 1
Undoes
EndUndoes
Redoes
EndRedoes
EndUndoRedoHistory
Fore
SplineSet
324 -419 m 1
 447 96 l 1
 651 96 l 1
 481 -419 l 1
 324 -419 l 1
728 -419 m 1
 841 96 l 1
 1056 96 l 1
 875 -419 l 1
 728 -419 l 1
EndSplineSet
EndChar

StartChar: perthousand
Encoding: 302 8240 209
Width: 4109
Flags: W
HStem: -47 132<1286 1528.73 2154.4 2401.55> 650 134<1286.3 1533.32 2154.8 2397.11> 853 133<402.065 669.807> 1551 132<400.871 670.348>
VStem: 139 171<1085.6 1453.96> 762 171<1087.09 1451.92> 1033 171<177.895 559.817> 1615 168<180.468 558.74> 1902 170<177.895 559.817> 2483 169<176.948 558.581>
LayerCount: 2
UndoRedoHistory
Layer: 1
Undoes
EndUndoes
Redoes
EndRedoes
EndUndoRedoHistory
Fore
SplineSet
535 853 m 0
 279 853 139 1015 139 1270 c 0
 139 1464 230 1594 368 1651 c 1
 417 1673 473 1683 537 1683 c 0
 795 1683 933 1525 933 1266 c 0
 933 1074 840 941 702 884 c 1
 653 862 597 853 535 853 c 0
1407 -47 m 0
 1174 -47 1033 115 1033 370 c 0
 1033 564 1123 694 1256 752 c 1
 1300 774 1353 784 1411 784 c 0
 1647 784 1783 622 1783 366 c 0
 1783 172 1692 43 1560 -15 c 1
 1515 -37 1465 -47 1407 -47 c 0
2275 -47 m 0
 2042 -47 1902 115 1902 370 c 0
 1902 564 1992 694 2125 752 c 1
 2169 774 2222 784 2280 784 c 0
 2517 784 2652 624 2652 366 c 0
 2652 173 2559 42 2427 -15 c 1
 2383 -37 2333 -47 2275 -47 c 0
520 -40 m 1
 341 -40 l 1
 1419 1670 l 1
 1577 1670 l 1
 520 -40 l 1
310 1271 m 0
 310 1111 379 986 539 986 c 0
 693 986 762 1115 762 1268 c 0
 762 1426 692 1551 535 1551 c 0
 381 1551 310 1425 310 1271 c 0
1410 85 m 0
 1549 85 1615 214 1615 368 c 0
 1615 528 1553 650 1410 650 c 0
 1268 650 1204 526 1204 370 c 0
 1204 210 1267 85 1410 85 c 0
2279 85 m 0
 2420 85 2483 213 2483 368 c 0
 2483 525 2420 650 2278 650 c 0
 2136 650 2072 526 2072 370 c 0
 2072 210 2136 85 2279 85 c 0
EndSplineSet
EndChar

StartChar: dotlessi
Encoding: 213 305 225
Width: 731
Flags: W
HStem: 1006 20G<197 439>
VStem: 197 242<202.551 1026>
AnchorPoint: "top" 272 1023 basechar 0
AnchorPoint: "top" 314 1085 basechar 0
LayerCount: 2
UndoRedoHistory
Layer: 1
Undoes
EndUndoes
Redoes
EndRedoes
EndUndoRedoHistory
Fore
SplineSet
747 33 m 1
 487 -70 197 -26 197 337 c 2
 197 1026 l 1
 439 1026 l 1
 439 334 l 2
 439 158 544 155 716 203 c 1
 747 33 l 1
EndSplineSet
EndChar

StartChar: circumflex
Encoding: 274 710 226
Width: 1212
Flags: W
HStem: 2061 381
LayerCount: 2
UndoRedoHistory
Layer: 1
Undoes
EndUndoes
Redoes
EndRedoes
EndUndoRedoHistory
Fore
SplineSet
522.5 2442 m 1
 688.5 2442 l 1
 976.5 2061 l 1
 750.5 2061 l 1
 605.5 2245 l 1
 453.5 2061 l 1
 235.5 2061 l 1
 522.5 2442 l 1
EndSplineSet
EndChar

StartChar: tilde
Encoding: 280 732 227
Width: 1151
Flags: W
HStem: 1202 147<600.818 814.209> 1282 147<374.787 607.222> 1435 20G<832 963>
VStem: 233 123<1182 1261.06> 836 127<1370.7 1455>
AnchorPoint: "top" 339 1152 mark 0
AnchorPoint: "top" 339 1152 mark 0
LayerCount: 2
UndoRedoHistory
Layer: 1
Undoes
EndUndoes
Redoes
EndRedoes
EndUndoRedoHistory
Fore
SplineSet
233 1182 m 1x78
 244 1318 321 1429 466 1429 c 0x78
 548 1429 608 1386 669 1362 c 0
 690 1353 713 1349 734 1349 c 0
 796 1349 828 1395 836 1455 c 1
 963 1455 l 1
 948 1322 879 1202 734 1202 c 0xb8
 630 1202 566 1282 463 1282 c 0
 399 1282 365 1248 356 1182 c 1
 233 1182 l 1x78
EndSplineSet
EndChar

StartChar: macron
Encoding: 110 175 228
Width: 1273
Flags: W
HStem: 1303 157<309.5 963.5>
VStem: 309.5 654<1303 1460>
AnchorPoint: "top" 373 1152 mark 0
AnchorPoint: "top" 650.5 1084 mark 0
LayerCount: 2
UndoRedoHistory
Layer: 1
Undoes
EndUndoes
Redoes
EndRedoes
EndUndoRedoHistory
Fore
SplineSet
309.5 1303 m 5
 309.5 1460 l 5
 963.5 1460 l 5
 963.5 1303 l 5
 309.5 1303 l 5
EndSplineSet
EndChar

StartChar: breve
Encoding: 276 728 229
Width: 1106
Flags: W
HStem: 1202 126<393.215 704.247> 1460 20G<227 337.5 765.5 879>
VStem: 227 102<1391.71 1480> 777 102<1401.36 1480>
AnchorPoint: "top" 327 1046 mark 0
AnchorPoint: "top" 306 1046 mark 0
LayerCount: 2
UndoRedoHistory
Layer: 1
Undoes
EndUndoes
Redoes
EndRedoes
EndUndoRedoHistory
Fore
SplineSet
555 1202 m 0
 360 1202 242 1292 227 1480 c 1
 329 1480 l 1
 346 1377 432 1328 547 1328 c 0
 662 1328 754 1381 777 1480 c 1
 879 1480 l 1
 864 1299 745 1202 555 1202 c 0
EndSplineSet
EndChar

StartChar: dotaccent
Encoding: 277 729 230
Width: 932
Flags: W
HStem: 2195 191<371.5 560.5>
VStem: 371.5 189<2195 2386>
AnchorPoint: "top" 315 1030 mark 0
AnchorPoint: "top" 352.5 1030 mark 0
LayerCount: 2
UndoRedoHistory
Layer: 1
Undoes
EndUndoes
Redoes
EndRedoes
EndUndoRedoHistory
Fore
SplineSet
371.5 2195 m 1
 371.5 2386 l 1
 560.5 2386 l 1
 560.5 2195 l 1
 371.5 2195 l 1
EndSplineSet
EndChar

StartChar: ring
Encoding: 278 730 231
Width: 1075
Flags: W
HStem: 1153.9 100<435.603 636.04> 1500.9 100<437.741 637.311>
VStem: 291 116<1280.53 1471.92> 667 117<1286.99 1470.12>
AnchorPoint: "top" 316 1152 mark 0
AnchorPoint: "top" 539 1092 mark 0
LayerCount: 2
UndoRedoHistory
Layer: 1
Undoes
EndUndoes
Redoes
EndRedoes
EndUndoRedoHistory
Fore
SplineSet
536 1253.90039062 m 4
 607 1253.90039062 667 1306.90039062 667 1377.90039062 c 4
 667 1449.90039062 609 1500.90039062 536 1500.90039062 c 4
 465 1500.90039062 407 1448.90039062 407 1377.90039062 c 4
 407 1301.90039062 460 1253.90039062 536 1253.90039062 c 4
539 1153.90039062 m 4
 378 1153.90039062 291 1267.90039062 291 1375.90039062 c 4
 291 1532.90039062 432 1600.90039062 538 1600.90039062 c 4
 696 1600.90039062 784 1485.90039062 784 1377.90039062 c 4
 784 1223.90039062 640 1153.90039062 539 1153.90039062 c 4
EndSplineSet
EndChar

StartChar: cedilla
Encoding: 118 184 232
Width: 941
Flags: W
HStem: -481 97<221.861 524.719> -214 92<458 524.132>
VStem: 535 168<-367.517 -228.749>
AnchorPoint: "bottom" 280 0 mark 0
AnchorPoint: "bottom" 416 0.5 mark 0
LayerCount: 2
UndoRedoHistory
Layer: 1
Undoes
EndUndoes
Redoes
EndRedoes
EndUndoRedoHistory
Fore
SplineSet
420 -481 m 0
 349 -481 278 -469 214 -456 c 1
 224 -356 l 1
 282 -370 338 -384 401 -384 c 0
 478 -384 535 -365 535 -300 c 0
 535 -230 478 -214 407 -214 c 0
 397 -214 377 -215 364 -217 c 1
 326 -219 l 1
 365 4 l 1
 478 4 l 1
 458 -122 l 1
 468 -122 l 1
 590 -128 703 -171 703 -297 c 0
 703 -438 563 -481 420 -481 c 0
EndSplineSet
EndChar

StartChar: hungarumlaut
Encoding: 281 733 233
Width: 1684
Flags: W
HStem: 2067 368
AnchorPoint: "top" 316 1152 mark 0
AnchorPoint: "top" 316 1152 mark 0
LayerCount: 2
UndoRedoHistory
Layer: 1
Undoes
EndUndoes
Redoes
EndRedoes
EndUndoRedoHistory
Fore
SplineSet
296 2067 m 1
 549 2435 l 1
 736 2435 l 1
 434 2067 l 1
 296 2067 l 1
602 2067 m 1
 839 2435 l 1
 1046 2435 l 1
 730 2067 l 1
 602 2067 l 1
EndSplineSet
EndChar

StartChar: ogonek
Encoding: 279 731 234
Width: 904
Flags: W
HStem: -458 129<393.304 616.535>
VStem: 215 166<-315.675 -139.583>
AnchorPoint: "ogonek" 308 0 mark 0
AnchorPoint: "ogonek" 525 -0.799988 mark 0
LayerCount: 2
UndoRedoHistory
Layer: 1
Undoes
EndUndoes
Redoes
EndRedoes
EndUndoRedoHistory
Fore
SplineSet
452 -458 m 0
 341 -458 215 -400 215 -283 c 0
 215 -178 288 -48 468 14 c 1
 619 0 l 1
 407 -70 381 -215 381 -234 c 0
 381 -294 418 -329 478 -329 c 0
 554 -329 566 -315 619 -294 c 1
 619 -424 l 1
 566 -446 527 -458 452 -458 c 0
EndSplineSet
EndChar

StartChar: caron
Encoding: 275 711 235
Width: 1215
Flags: W
HStem: 2061 379
LayerCount: 2
UndoRedoHistory
Layer: 1
Undoes
EndUndoes
Redoes
EndRedoes
EndUndoRedoHistory
Fore
SplineSet
526 2061 m 1
 248 2440 l 1
 421 2440 l 1
 601 2187 l 1
 785 2440 l 1
 967 2440 l 1
 690 2061 l 1
 526 2061 l 1
EndSplineSet
EndChar

StartChar: kgreenlandic
Encoding: 219 312 236
Width: 1855
Flags: W
HStem: 0 21G<324 517 1038.43 1315>
VStem: 324 193<0 553 654 1205>
LayerCount: 2
UndoRedoHistory
Layer: 1
Undoes
EndUndoes
Redoes
EndRedoes
EndUndoRedoHistory
Fore
SplineSet
324 0 m 1
 324 1205 l 1
 517 1205 l 1
 517 654 l 1
 1011 1205 l 1
 1271 1205 l 1
 689 601 l 1
 891 396 1091 204 1315 0 c 1
 1058 0 l 1
 517 553 l 1
 517 0 l 1
 324 0 l 1
EndSplineSet
EndChar

StartChar: Sacute
Encoding: 233 346 241
Width: 1151
Flags: W
HStem: -22 208<434.64 832.974> 1480 2<625.446 692.472>
VStem: 167 258<986.203 1155.5> 913 236<270.408 510.295>
LayerCount: 2
UndoRedoHistory
Layer: 1
Undoes
EndUndoes
Redoes
EndRedoes
EndUndoRedoHistory
Fore
SplineSet
684 -22 m 0
 517 -22 314 35 175 123 c 1
 234 321 l 1
 410 223 555 186 675 186 c 0
 836 186 913 281 913 387 c 0
 913 488 889 561 565 666 c 1
 244 778 167 901 167 1074 c 0
 167 1291 304 1482 658 1482 c 0
 804 1482 965 1441 1097 1360 c 1
 1027 1166 l 1
 901 1233 782 1274 674 1274 c 0
 482 1274 425 1204 425 1107 c 0
 425 1007 451 957 698 868 c 1
 1044 749 1155 644 1149 393 c 0
 1144 166 999 -22 684 -22 c 0
280 1104 m 1
 503 1104 l 1
 865 1480 l 1
 546 1480 l 1
 280 1104 l 1
EndSplineSet
EndChar

StartChar: uniF6C3
Encoding: 321 63171 247
Width: 1065
Flags: W
HStem: -612 543<428 456>
VStem: 303 344
LayerCount: 2
UndoRedoHistory
Layer: 1
Undoes
EndUndoes
Redoes
EndRedoes
EndUndoRedoHistory
Fore
SplineSet
303 -612 m 1
 428 -69 l 1
 647 -69 l 1
 456 -612 l 1
 303 -612 l 1
EndSplineSet
EndChar

StartChar: e.alt
Encoding: 325 -1 250
Width: 1840
Flags: W
HStem: -34 167<564.648 922.526> 1061 168<574.664 865.043>
VStem: 176 211<570.656 840.592> 927 191<756.926 995.494>
LayerCount: 2
UndoRedoHistory
Layer: 1
Undoes
EndUndoes
Redoes
EndRedoes
EndUndoRedoHistory
Fore
SplineSet
720 -34 m 0
 440 -34 176 195 176 595 c 0
 176 934 382 1229 724 1229 c 0
 957 1229 1118 1066 1118 870 c 0
 1118 583 790 488 403 425 c 1
 450 214 586 133 728 133 c 0
 875 133 1012 208 1099 313 c 1
 1197 188 l 1
 1058 43 900 -34 720 -34 c 0
390 564 m 1
 693 616 927 686 927 875 c 0
 927 982 854 1061 726 1061 c 0
 513 1061 387 852 387 622 c 0
 387 603 388 584 390 564 c 1
EndSplineSet
EndChar

StartChar: Euro
Encoding: 307 8364 253
Width: 1370
Flags: W
HStem: -24 208<681.901 1098.53> 466 162<18 219 346 1000> 814 162<17 219 346 1038> 1272 208<676.248 1058.99>
VStem: 146 266<352.5 1115>
LayerCount: 2
UndoRedoHistory
Layer: 1
Undoes
EndUndoes
Redoes
EndRedoes
EndUndoRedoHistory
Fore
SplineSet
1000 466 m 1
 -5 466 l 1
 18 628 l 1
 219 628 l 1
 219 814 l 1
 -9 814 l 1
 17 976 l 1
 1062 976 l 1
 1038 814 l 1
 346 814 l 1
 346 628 l 1
 1023 628 l 1
 1000 466 l 1
853 -24 m 0
 435 -24 146 287 146 733 c 0
 146 1185 447 1480 866 1480 c 0
 1015 1480 1182 1422 1305 1327 c 1
 1218 1136 l 1
 1143 1197 1000 1272 867 1272 c 0
 577 1272 412 1045 412 732 c 0
 412 418 576 184 881 184 c 0
 1002 184 1144 232 1243 311 c 1
 1321 125 l 1
 1212 36 1011 -24 853 -24 c 0
EndSplineSet
EndChar

StartChar: gcommaaccent
Encoding: 205 291 263
Width: 1808
Flags: W
HStem: -577 20G<278.404 502> -522 195<338.943 703.525> 0 191<468.609 699.697> 862 186<524.797 820.782>
VStem: 122 248<301.51 687.366> 822 242<-201.375 129 334.274 850.049>
LayerCount: 2
UndoRedoHistory
Layer: 1
Undoes
EndUndoes
Redoes
EndRedoes
EndUndoRedoHistory
Fore
SplineSet
158 -1101 m 1
 283 -557 l 1
 502 -557 l 1
 312 -1101 l 1
 158 -1101 l 1
567 -522 m 0
 456 -522 309 -492 191 -429 c 1
 232 -227 l 1
 326 -287 438 -327 544 -327 c 0
 684 -327 822 -251 822 -10 c 2
 822 129 l 1
 754 36 644 0 548 0 c 0
 304 0 122 199 122 460 c 0
 122 806 341 1048 674 1048 c 0
 801 1048 968 998 1064 942 c 1
 1064 36 l 2
 1064 -320 840 -522 567 -522 c 0
577 191 m 0
 725 191 822 352 822 545 c 2
 822 837 l 1
 786 851 728 862 675 862 c 0
 506 862 370 725 370 470 c 0
 370 318 466 191 577 191 c 0
EndSplineSet
EndChar

StartChar: uni00B3
Encoding: 114 179 266
Width: 2105
Flags: W
HStem: 476 135<624.412 923.499> 928 139<662 905.989> 1340 140<627.987 918.783>
VStem: 951 156<1111.39 1308.02> 980 152<666.019 876.931>
LayerCount: 2
UndoRedoHistory
Layer: 1
Undoes
EndUndoes
Redoes
EndRedoes
EndUndoRedoHistory
Fore
SplineSet
781 476 m 0xe8
 655 476 559 523 492 590 c 1
 562 702 l 1
 628 642 699 611 775 611 c 0
 885 611 980 663 980 771 c 0xe8
 980 902 860 928 728 928 c 2
 692 928 l 1
 662 928 l 1
 662 1067 l 1
 720 1067 l 2
 839 1067 951 1091 951 1209 c 0
 951 1304 880 1340 785 1340 c 0
 689 1340 618 1295 560 1249 c 1
 492 1361 l 1
 556 1425 666 1480 788 1480 c 0
 928 1480 1031 1418 1080 1327 c 0
 1098 1294 1107 1256 1107 1212 c 0xf0
 1107 1108 1054 1039 981 1000 c 1
 1069 961 1132 888 1132 768 c 0
 1132 620 1031 532 916 496 c 0
 874 483 828 476 781 476 c 0xe8
EndSplineSet
EndChar

StartChar: one.alt
Encoding: 326 -1 267
Width: 999
Flags: W
HStem: 0 21G<471 721> 1436 20G<443.5 721>
VStem: 471 250<0 1241>
LayerCount: 2
UndoRedoHistory
Layer: 1
Undoes
EndUndoes
Redoes
EndRedoes
EndUndoRedoHistory
Fore
SplineSet
471 0 m 1
 471 1241 l 1
 405 1190 301 1143 195 1099 c 1
 135 1270 l 1
 251 1322 410 1405 477 1456 c 1
 721 1456 l 1
 721 0 l 1
 471 0 l 1
EndSplineSet
EndChar

StartChar: uni00B9
Encoding: 119 185 268
Width: 2105
Flags: W
HStem: 514 137<733 875 1018 1161> 1460 20G<894 1018>
VStem: 875 143<654 1297>
LayerCount: 2
UndoRedoHistory
Layer: 1
Undoes
EndUndoes
Redoes
EndRedoes
EndUndoRedoHistory
Fore
SplineSet
733 514 m 1
 733 654 l 1
 875 654 l 1
 875 988 l 2
 875 1058 874 1115 874 1176 c 2
 874 1297 l 1
 822 1269 755 1239 696 1217 c 1
 697 1370 l 1
 775 1395 833 1426 894 1462 c 1
 1018 1480 l 1
 1018 651 l 1
 1161 651 l 1
 1161 514 l 1
 733 514 l 1
EndSplineSet
EndChar

StartChar: rcaron
Encoding: 232 345 270
Width: 1233
Flags: W
HStem: 0 21G<221 463> 831 213<566.668 825.299> 1006 20G<267.213 337.5>
VStem: 221 242<0 718.012>
LayerCount: 2
UndoRedoHistory
Layer: 1
Undoes
EndUndoes
Redoes
EndRedoes
EndUndoRedoHistory
Fore
SplineSet
453 1182 m 1x90
 175 1561 l 1
 348 1561 l 1
 528 1308 l 1
 712 1561 l 1
 894 1561 l 1
 617 1182 l 1
 453 1182 l 1x90
221 0 m 1
 221 652 l 2
 221 801 141 898 92 937 c 1
 318 1026 l 1xb0
 357 988 393 952 422 864 c 1
 482 993 601 1044 709 1044 c 0
 789 1044 830 1027 842 1022 c 1
 824 815 l 1
 780 826 743 831 708 831 c 0xd0
 517 831 463 648 463 566 c 2
 463 0 l 1
 221 0 l 1
EndSplineSet
EndChar

StartChar: uni03A9
Encoding: 287 937 285
Width: 2716
Flags: W
HStem: 0 163<186 559 1322 1680> 1537 165<739.957 1163.31>
VStem: 198 210<627.759 1162.69> 1480 208<633.817 1167.51>
LayerCount: 2
UndoRedoHistory
Layer: 1
Undoes
EndUndoes
Redoes
EndRedoes
EndUndoRedoHistory
Fore
SplineSet
186 0 m 1
 173 163 l 1
 559 161 l 1
 411 282 283 452 227 679 c 0
 208 752 198 830 198 911 c 0
 198 1167 295 1359 429 1487 c 1
 550 1613 729 1702 955 1702 c 0
 1185 1702 1360 1606 1476 1472 c 1
 1601 1342 1688 1150 1688 906 c 0
 1688 729 1636 585 1571 467 c 1
 1503 347 1414 242 1322 161 c 1
 1691 163 l 1
 1680 0 l 1
 1109 0 l 1
 1104 142 l 1
 1263 260 1392 431 1450 658 c 1
 1470 730 1480 807 1480 885 c 0
 1480 1179 1363 1387 1182 1484 c 0
 1116 1519 1038 1537 950 1537 c 0
 686 1537 521 1371 448 1153 c 0
 422 1073 408 986 408 891 c 0
 408 624 508 424 628 282 c 0
 674 229 723 182 778 142 c 1
 782 0 l 1
 186 0 l 1
EndSplineSet
EndChar

StartChar: rcommaaccent
Encoding: 230 343 290
Width: 1233
Flags: W
HStem: 0 21G<221 463> 831 213<566.668 825.299> 1006 20G<267.213 337.5>
VStem: 221 242<0 718.012>
LayerCount: 2
UndoRedoHistory
Layer: 1
Undoes
EndUndoes
Redoes
EndRedoes
EndUndoRedoHistory
Fore
SplineSet
270 -734 m 1x90
 395 -190 l 1
 614 -190 l 1
 424 -734 l 1
 270 -734 l 1x90
221 0 m 1
 221 652 l 2
 221 801 141 898 92 937 c 1
 318 1026 l 1xb0
 357 988 393 952 422 864 c 1
 482 993 601 1044 709 1044 c 0
 789 1044 830 1027 842 1022 c 1
 824 815 l 1
 780 826 743 831 708 831 c 0xd0
 517 831 463 648 463 566 c 2
 463 0 l 1
 221 0 l 1
EndSplineSet
EndChar

StartChar: uni03BC
Encoding: 288 956 291
Width: 2153
Flags: W
HStem: -145 154<602.618 958.568> 1066 20G<287 480 1133 1327>
VStem: 287 193<-356 -83 139.688 1086> 1133 194<-119 40 196.387 1086>
LayerCount: 2
UndoRedoHistory
Layer: 1
Undoes
EndUndoes
Redoes
EndRedoes
EndUndoRedoHistory
Fore
SplineSet
287 -356 m 1
 287 1086 l 1
 480 1086 l 1
 480 350 l 2
 480 132 567 9 781 9 c 0
 958 9 1065 111 1110 245 c 0
 1125 292 1133 341 1133 393 c 2
 1133 1086 l 1
 1327 1086 l 1
 1327 170 l 2
 1327 64 1328 -20 1336 -119 c 1
 1137 -119 l 1
 1133 40 l 1
 1043 -83 911 -145 737 -145 c 0
 630 -145 547 -123 480 -83 c 1
 480 -356 l 1
 287 -356 l 1
EndSplineSet
EndChar

StartChar: hbar
Encoding: 206 295 293
Width: 1238
Flags: W
HStem: -16 193<1102.62 1200> 0 21G<176 418> 862 186<518.067 765.489> 1154 157<34 769> 1450 20G<176 418>
VStem: 176 242<0 766.292 931 1470> 834 242<207.319 787.112>
LayerCount: 2
UndoRedoHistory
Layer: 1
Undoes
EndUndoes
Redoes
EndRedoes
EndUndoRedoHistory
Fore
SplineSet
34 1154 m 1x3e
 34 1311 l 1
 769 1311 l 1
 769 1154 l 1
 34 1154 l 1x3e
1200 -16 m 1xbe
 1155 -16 l 2xbe
 920 -16 834 88 834 298 c 2
 834 606 l 2
 834 759 774 862 646 862 c 0
 484 862 418 734 418 595 c 2
 418 0 l 1
 176 0 l 1x7e
 176 1470 l 1
 418 1470 l 1
 418 931 l 1
 498 1015 613 1048 704 1048 c 0
 931 1048 1076 875 1076 608 c 2
 1076 352 l 2
 1076 224 1105 177 1212 177 c 2
 1234 177 l 1
 1200 -16 l 1xbe
EndSplineSet
EndChar

StartChar: Racute
Encoding: 228 340 296
Width: 1284
Flags: W
HStem: 0 21G<202 452 1010.19 1285> 646 183<452 818.885> 1256 200<660 899.292> 1456 24<660 916.533>
VStem: 202 250<0 646 829 1256> 958 252<907.627 1200.79>
LayerCount: 2
UndoRedoHistory
Layer: 1
Undoes
EndUndoes
Redoes
EndRedoes
EndUndoRedoHistory
Fore
SplineSet
202 0 m 1xec
 202 1456 l 1xdc
 660 1456 l 2
 1034 1456 1210 1343 1210 1077 c 0
 1210 886 1139 726 918 666 c 1
 972 724 l 1
 1285 0 l 1
 1018 0 l 1
 740 712 l 1
 819 646 l 1
 452 646 l 1
 452 0 l 1
 202 0 l 1xec
452 829 m 1
 668 829 l 2
 871 829 958 895 958 1062 c 0
 958 1222 873 1256 677 1256 c 2
 452 1256 l 1xec
 452 829 l 1
347 1104 m 1
 570 1104 l 1
 932 1480 l 1
 613 1480 l 1xdc
 347 1104 l 1
EndSplineSet
EndChar

StartChar: dblgravecmb
Encoding: 283 783 297
Width: 1684
Flags: W
HStem: 1108.5 368
AnchorPoint: "top" 186 1048 mark 0
AnchorPoint: "top" 850 1024 mark 0
LayerCount: 2
UndoRedoHistory
Layer: 1
Undoes
EndUndoes
Redoes
EndRedoes
EndUndoRedoHistory
Fore
SplineSet
612 1108.5 m 1
 296 1476.5 l 1
 502 1476.5 l 1
 740 1108.5 l 1
 612 1108.5 l 1
907 1108.5 m 1
 606 1476.5 l 1
 792 1476.5 l 1
 1046 1108.5 l 1
 907 1108.5 l 1
EndSplineSet
EndChar

StartChar: uni00B2
Encoding: 113 178 298
Width: 2105
Flags: W
HStem: 499 138<727 1155> 1343 137<708.804 970.544>
VStem: 1005 151<1092.39 1308.17>
LayerCount: 2
UndoRedoHistory
Layer: 1
Undoes
EndUndoes
Redoes
EndRedoes
EndUndoRedoHistory
Fore
SplineSet
514 499 m 1
 514 629 l 1
 639 743 762 856 867 971 c 0
 910 1019 943 1063 968 1103 c 0
 993 1143 1005 1179 1005 1212 c 0
 1005 1300 933 1343 840 1343 c 0
 728 1343 662 1272 623 1189 c 1
 523 1281 l 1
 573 1399 685 1480 847 1480 c 0
 986 1480 1086 1419 1132 1324 c 1
 1147 1290 1156 1254 1156 1213 c 0
 1156 1090 1095 1003 1032 926 c 0
 945 821 835 731 727 637 c 1
 1155 637 l 1
 1155 499 l 1
 514 499 l 1
EndSplineSet
EndChar

StartChar: dotlessj
Encoding: 273 567 300
Width: 660
Flags: W
HStem: -499 176<-47.1533 194.588> 1006 20G<239 481>
VStem: 239 242<-281.254 1026>
AnchorPoint: "top" 259 1152 basechar 0
AnchorPoint: "top" 367 1086 basechar 0
LayerCount: 2
UndoRedoHistory
Layer: 1
Undoes
EndUndoes
Redoes
EndRedoes
EndUndoRedoHistory
Fore
SplineSet
111 -499 m 0
 8 -499 -65 -475 -65 -475 c 1
 -44 -305 l 1
 -44 -305 21 -323 89 -323 c 0
 187 -323 239 -280 239 -90 c 2
 239 1026 l 1
 481 1026 l 1
 481 -93 l 2
 481 -325 417 -499 111 -499 c 0
EndSplineSet
EndChar

StartChar: nacute
Encoding: 225 324 301
Width: 1306
Flags: W
HStem: -16 192<1144.22 1237> 0 21G<215 457> 862 186<563.691 805.549> 1006 20G<261.213 336>
VStem: 215 242<0 754.246> 868 242<203.797 368 604 798.657>
LayerCount: 2
UndoRedoHistory
Layer: 1
Undoes
EndUndoes
Redoes
EndRedoes
EndUndoRedoHistory
Fore
SplineSet
572 197 m 1x0c
 838 573 l 1
 1157 573 l 1
 795 197 l 1
 572 197 l 1x0c
1271 176 m 1xac
 1237 -16 l 1
 1202 -16 l 2
 941 -16 868 121 868 368 c 2
 868 604 l 2
 868 757 825 862 691 862 c 0xac
 578 862 457 767 457 592 c 2
 457 0 l 1
 215 0 l 1
 215 643 l 2
 215 764 173 860 86 937 c 1
 312 1026 l 1x5c
 360 989 404 919 416 873 c 1
 465 967 593 1048 750 1048 c 0
 979 1048 1110 875 1110 608 c 2
 1110 345 l 2
 1110 236 1133 176 1254 176 c 2
 1271 176 l 1xac
EndSplineSet
EndChar

StartChar: f.alt
Encoding: 328 -1 303
Width: 760
Flags: W
HStem: -410 197<101 215.53> 862 164<73 259 501 731> 1292 188<548.586 781>
VStem: 259 242<-164.868 862 1026 1239.13>
LayerCount: 2
UndoRedoHistory
Layer: 1
Undoes
EndUndoes
Redoes
EndRedoes
EndUndoRedoHistory
Fore
SplineSet
101 -410 m 1
 80 -213 l 1
 210 -213 259 -155 259 -19 c 2
 259 862 l 1
 73 862 l 1
 73 1026 l 1
 259 1026 l 1
 259 1096 l 2
 259 1386 405 1480 678 1480 c 2
 781 1480 l 1
 781 1292 l 1
 696 1292 l 2
 538 1292 501 1223 501 1061 c 2
 501 1026 l 1
 731 1026 l 1
 731 862 l 1
 501 862 l 1
 501 -11 l 2
 501 -273 370 -410 101 -410 c 1
EndSplineSet
EndChar

StartChar: Rcommaaccent
Encoding: 229 342 304
Width: 1284
Flags: W
HStem: -577 20G<605.404 829> 0 21G<202 452 1010.19 1285> 646 183<452 818.885> 1256 200<452 890.623>
VStem: 202 250<0 646 829 1256> 958 252<907.627 1200.79>
LayerCount: 2
UndoRedoHistory
Layer: 1
Undoes
EndUndoes
Redoes
EndRedoes
EndUndoRedoHistory
Fore
SplineSet
202 0 m 1
 202 1456 l 1
 660 1456 l 2
 1034 1456 1210 1343 1210 1077 c 0
 1210 886 1139 726 918 666 c 1
 972 724 l 1
 1285 0 l 1
 1018 0 l 1
 740 712 l 1
 819 646 l 1
 452 646 l 1
 452 0 l 1
 202 0 l 1
452 829 m 1
 668 829 l 2
 871 829 958 895 958 1062 c 0
 958 1222 873 1256 677 1256 c 2
 452 1256 l 1
 452 829 l 1
485 -1101 m 1
 610 -557 l 1
 829 -557 l 1
 639 -1101 l 1
 485 -1101 l 1
EndSplineSet
EndChar

StartChar: uniFB01
Encoding: 322 64257 306
Width: 2132
Flags: W
HStem: 0 21G<326 519 1057 1251> 1079 126<89 326 519 1057> 1535 182<1066 1246> 1619 159<576.008 834.34>
VStem: 326 193<0 1079 1205 1562.18> 1057 194<0 1079 1535 1717>
LayerCount: 2
UndoRedoHistory
Layer: 1
Undoes
EndUndoes
Redoes
EndRedoes
EndUndoRedoHistory
Fore
SplineSet
326 0 m 1xdc
 326 1079 l 1
 89 1079 l 1
 89 1205 l 1
 326 1205 l 1
 327 1336 l 1
 330 1594 414 1778 676 1778 c 0
 740 1778 784 1765 836 1754 c 1
 838 1601 l 1
 808 1613 752 1619 709 1619 c 0
 551 1619 520 1523 520 1365 c 2
 519 1205 l 1
 1251 1205 l 1
 1251 0 l 1
 1057 0 l 1
 1057 1079 l 1
 519 1079 l 1
 519 0 l 1
 326 0 l 1xdc
1066 1535 m 1xec
 1066 1717 l 1
 1246 1717 l 1
 1246 1535 l 1
 1066 1535 l 1xec
EndSplineSet
EndChar

StartChar: commaaccentcomb
Encoding: 285 806 307
Width: 961
Flags: W
HStem: -1101 544<273 302>
VStem: 148 344
LayerCount: 2
UndoRedoHistory
Layer: 1
Undoes
EndUndoes
Redoes
EndRedoes
EndUndoRedoHistory
Fore
SplineSet
148 -1101 m 1
 273 -557 l 1
 492 -557 l 1
 302 -1101 l 1
 148 -1101 l 1
EndSplineSet
EndChar

StartChar: Rcaron
Encoding: 231 344 311
Width: 1284
Flags: W
HStem: 0 21G<202 452 1010.19 1285> 646 183<452 818.885> 1256 200<452 890.623>
VStem: 202 250<0 646 829 1256> 958 252<907.627 1200.79>
LayerCount: 2
UndoRedoHistory
Layer: 1
Undoes
EndUndoes
Redoes
EndRedoes
EndUndoRedoHistory
Fore
SplineSet
202 0 m 1
 202 1456 l 1
 660 1456 l 2
 1034 1456 1210 1343 1210 1077 c 0
 1210 886 1139 726 918 666 c 1
 972 724 l 1
 1285 0 l 1
 1018 0 l 1
 740 712 l 1
 819 646 l 1
 452 646 l 1
 452 0 l 1
 202 0 l 1
452 829 m 1
 668 829 l 2
 871 829 958 895 958 1062 c 0
 958 1222 873 1256 677 1256 c 2
 452 1256 l 1
 452 829 l 1
563 2061 m 1
 285 2440 l 1
 458 2440 l 1
 638 2187 l 1
 822 2440 l 1
 1004 2440 l 1
 727 2061 l 1
 563 2061 l 1
EndSplineSet
EndChar

StartChar: uni0311
Encoding: 284 785 314
Width: 1106
Flags: W
HStem: 1347.7 126<393.215 704.247>
VStem: 227 102<1195.7 1283.99> 777 102<1195.7 1274.34>
AnchorPoint: "top" 318 1152 mark 0
AnchorPoint: "top" 562 1080 mark 0
LayerCount: 2
UndoRedoHistory
Layer: 1
Undoes
EndUndoes
Redoes
EndRedoes
EndUndoRedoHistory
Fore
SplineSet
227 1195.70019531 m 1
 242 1383.70019531 360 1473.70019531 555 1473.70019531 c 0
 745 1473.70019531 864 1376.70019531 879 1195.70019531 c 1
 777 1195.70019531 l 1
 754 1294.70019531 662 1347.70019531 547 1347.70019531 c 0
 432 1347.70019531 346 1299.70019531 329 1195.70019531 c 1
 227 1195.70019531 l 1
EndSplineSet
EndChar

StartChar: nine.alt
Encoding: 329 -1 319
Width: 1254
Flags: W
HStem: 523 191<516.188 708.566> 1272 208<499.155 805.732>
VStem: 151 237<843.069 1163.45> 911 219<836.037 1163.11>
LayerCount: 2
UndoRedoHistory
Layer: 1
Undoes
EndUndoes
Redoes
EndRedoes
EndUndoRedoHistory
Fore
SplineSet
597 -119 m 1
 411 -6 l 1
 709 529 l 1
 698 523 675 523 623 523 c 0
 367 523 151 731 151 997 c 0
 151 1326 413 1480 643 1480 c 0
 874 1480 1130 1321 1130 992 c 0
 1130 867 1035 649 952 511 c 1
 597 -119 l 1
656 714 m 0
 781 714 911 812 911 1009 c 0
 911 1191 780 1272 652 1272 c 0
 525 1272 388 1193 388 1011 c 0
 388 815 527 714 656 714 c 0
EndSplineSet
EndChar

StartChar: dotaccentcmb
Encoding: 282 775 320
Width: 932
Flags: W
HStem: 1290.4 191<334 523>
VStem: 334 189<1290.4 1481.4>
AnchorPoint: "top" 315 1030 mark 0
AnchorPoint: "top" 443 1030 mark 0
LayerCount: 2
UndoRedoHistory
Layer: 1
Undoes
EndUndoes
Redoes
EndRedoes
EndUndoRedoHistory
Fore
SplineSet
334 1290.40039062 m 1
 334 1481.40039062 l 1
 523 1481.40039062 l 1
 523 1290.40039062 l 1
 334 1290.40039062 l 1
EndSplineSet
EndChar

StartChar: uni2074
Encoding: 306 8308 324
Width: 1564
Flags: W
HStem: 766 125<572 833 973 1100> 1460 20G<806.447 973>
VStem: 833 140<545 766 891 1283>
LayerCount: 2
UndoRedoHistory
Layer: 1
Undoes
EndUndoes
Redoes
EndRedoes
EndUndoRedoHistory
Fore
SplineSet
833 545 m 1
 833 766 l 1
 408 766 l 1
 408 872 l 1
 820 1480 l 1
 973 1480 l 1
 973 891 l 1
 1100 891 l 1
 1112 766 l 1
 970 766 l 1
 970 545 l 1
 833 545 l 1
572 891 m 1
 833 891 l 1
 833 1283 l 1
 572 891 l 1
EndSplineSet
EndChar

StartChar: uniFB02
Encoding: 323 64258 327
Width: 2360
Flags: W
HStem: -791 142<144.476 215.078> -277 159<1242.23 1559.75> 815 126<99 337 511 775> 1391 144<568.112 809.563>
VStem: 337 174<-508.139 815 941 1330.9> 989 192<-54.6719 1463.86> 989 177<143.142 1493>
LayerCount: 2
UndoRedoHistory
Layer: 1
Undoes
EndUndoes
Redoes
EndRedoes
EndUndoRedoHistory
Fore
SplineSet
147 -791 m 1xf8
 122 -649 l 1
 263 -615 337 -491 337 -304 c 2
 337 815 l 1
 99 815 l 1
 99 941 l 1
 337 941 l 1
 337 1110 l 2
 337 1407 429 1535 643 1535 c 0
 701 1535 763 1522 832 1496 c 1
 805 1371 l 1
 766 1381 727 1391 689 1391 c 0
 564 1391 511 1315 511 1137 c 2
 511 941 l 1
 775 941 l 1
 775 815 l 1
 511 815 l 1
 511 -277 l 2
 511 -570 419 -754 147 -791 c 1xf8
1331 -277 m 0
 1104 -277 989 -116 989 89 c 2xfc
 989 1493 l 1
 1166 1528 l 1xfa
 1181 79 l 1xfc
 1181 -54 1264 -118 1372 -118 c 0
 1427 -118 1498 -102 1555 -84 c 1
 1585 -235 l 1
 1490 -264 1394 -277 1331 -277 c 0
EndSplineSet
EndChar

StartChar: k.alt
Encoding: 330 -1 328
Width: 1171
Flags: W
HStem: 1006 20G<810.813 896.787> 1450 20G<162 404>
VStem: 162 242<389 1470>
LayerCount: 2
UndoRedoHistory
Layer: 1
Undoes
EndUndoes
Redoes
EndRedoes
EndUndoRedoHistory
Fore
SplineSet
1167 195 m 1
 1130 3 l 1
 1012 -42 895 -42 780 123 c 1
 618 362 l 1
 390 42 l 2
 314 -65 162 -27 162 102 c 2
 162 1470 l 1
 404 1470 l 1
 404 389 l 1
 824 1026 l 1
 1046 965 l 1
 762 539 l 1
 932 290 l 1
 1038 155 1054 165 1167 195 c 1
EndSplineSet
EndChar

StartChar: four.alt
Encoding: 331 -1 330
Width: 1254
Flags: W
HStem: 0 21G<755 982> 327 184<344 755 982 1179> 1436 20G<707.269 982>
VStem: 755 227<0 327 511 1167>
LayerCount: 2
UndoRedoHistory
Layer: 1
Undoes
EndUndoes
Redoes
EndRedoes
EndUndoRedoHistory
Fore
SplineSet
755 0 m 1
 755 327 l 1
 114 327 l 1
 114 504 l 1
 720 1456 l 1
 982 1456 l 1
 982 511 l 1
 1179 511 l 1
 1179 327 l 1
 982 327 l 1
 982 0 l 1
 755 0 l 1
344 511 m 1
 755 511 l 1
 755 1167 l 1
 579 882 l 1
 344 511 l 1
EndSplineSet
EndChar

StartChar: acutecomb
Encoding: 333 769 333
Width: 585
Flags: W
HStem: 1104 376
VStem: 0 585
AnchorPoint: "top" 164 1048 mark 0
AnchorPoint: "top" 136.5 1086 mark 0
LayerCount: 2
UndoRedoHistory
Layer: 1
Undoes
EndUndoes
Redoes
EndRedoes
EndUndoRedoHistory
Fore
SplineSet
0 1104 m 1
 266 1480 l 1
 585 1480 l 1
 223 1104 l 1
 0 1104 l 1
EndSplineSet
EndChar

StartChar: caroncomb
Encoding: 334 780 334
Width: 741
Flags: W
HStem: 1101 381
AnchorPoint: "top" 352 1025 mark 0
AnchorPoint: "top" 373.5 1086 mark 0
LayerCount: 2
UndoRedoHistory
Layer: 1
Undoes
EndUndoes
Redoes
EndRedoes
EndUndoRedoHistory
Fore
SplineSet
454 1101 m 5
 288 1101 l 5
 0 1482 l 5
 226 1482 l 5
 371 1298 l 5
 523 1482 l 5
 741 1482 l 5
 454 1101 l 5
EndSplineSet
EndChar

StartChar: circumflexcomb
Encoding: 335 770 335
Width: 741
Flags: W
HStem: 1100.8 381
AnchorPoint: "top" 355 1025 mark 0
AnchorPoint: "top" 373.5 1023 mark 0
LayerCount: 2
UndoRedoHistory
Layer: 1
Undoes
EndUndoes
Redoes
EndRedoes
EndUndoRedoHistory
Fore
SplineSet
287 1481.79980469 m 1
 453 1481.79980469 l 1
 741 1100.79980469 l 1
 515 1100.79980469 l 1
 370 1284.79980469 l 1
 218 1100.79980469 l 1
 0 1100.79980469 l 1
 287 1481.79980469 l 1
EndSplineSet
EndChar

StartChar: gravecomb
Encoding: 336 768 336
Width: 519
Flags: W
HStem: 1162 318
VStem: 0 519
AnchorPoint: "top" 469 1048 mark 0
AnchorPoint: "top" 442 1088 mark 0
LayerCount: 2
UndoRedoHistory
Layer: 1
Undoes
EndUndoes
Redoes
EndRedoes
EndUndoRedoHistory
Fore
SplineSet
330 1162 m 1
 0 1480 l 1
 273 1480 l 1
 519 1162 l 1
 330 1162 l 1
EndSplineSet
EndChar

StartChar: tildecomb
Encoding: 337 771 337
Width: 1151
Flags: W
HStem: 1202 147<600.818 814.209> 1282 147<374.787 607.222> 1435 20G<832 963>
VStem: 233 123<1182 1261.06> 836 127<1370.7 1455>
AnchorPoint: "top" 618 1089 mark 0
LayerCount: 2
UndoRedoHistory
Layer: 1
Undoes
EndUndoes
Redoes
EndRedoes
EndUndoRedoHistory
Fore
SplineSet
233 1182 m 1x78
 244 1318 321 1429 466 1429 c 0x78
 548 1429 608 1386 669 1362 c 0
 690 1353 713 1349 734 1349 c 0
 796 1349 828 1395 836 1455 c 1
 963 1455 l 1
 948 1322 879 1202 734 1202 c 0xb8
 630 1202 566 1282 463 1282 c 0
 399 1282 365 1248 356 1182 c 1
 233 1182 l 1x78
EndSplineSet
EndChar

